/* XPM */
static char * fillets_ng_xpm[] = {
"32 32 4 1",
"   c None",
".  c #000000",
"+  c #808000",
"@  c #FFFF00",
"           ..........           ",
"         ...+@@@@@@+...         ",
"       ...@@@@@@@@@@@@...       ",
"      ..+@@@+......+@@@+..      ",
"     ..@@@+..........+@@@..     ",
"    ..@@@..............@@@..    ",
"   ..@@@................@@@..   ",
"  ..@@@..................@@@..  ",
"  .+@@....................@@+.  ",
" ..@@......................@@.. ",
" .@@+......................+@@. ",
"..@@.....@@@@@.........@@...@@..",
".+@+...@@@@@@@@@.....@@@@...+@+.",
".@@...@@@.....@@@...@@+@@....@@.",
".@@...@@.+@....+@@+@@+.@@....@@.",
".@@..@@..@@.....+@@@+..@@....@@.",
".@@..@@.........+@@@+..@@....@@.",
".@@...@@.......+@@+@@+.@@....@@.",
".@@...@@@.....@@@...@@+@@....@@.",
".+@+...@@@@@@@@@.....@@@@...+@+.",
"..@@.....@@@@@.........@@...@@..",
" .@@+......................+@@. ",
" ..@@......................@@.. ",
"  .+@@....................@@+.  ",
"  ..@@@..................@@@..  ",
"   ..@@@................@@@..   ",
"    ..@@@..............@@@..    ",
"     ..@@@+..........+@@@..     ",
"      ..+@@@+......+@@@+..      ",
"       ...@@@@@@@@@@@@...       ",
"         ...+@@@@@@+...         ",
"           ..........           "};
