/* XPM */
static char *gnujump[] = {
/* columns rows colors chars-per-pixel */
"32 32 26 1 ",
"  c black",
". c #D10000",
"X c #E80000",
"o c #E90000",
"O c #F90000",
"+ c red",
"@ c #00C500",
"# c #00DC00",
"$ c #00DD00",
"% c #00EF00",
"& c #00FA00",
"* c #00FB00",
"= c green",
"- c #FFC882",
"; c #FFC982",
": c #FFD298",
"> c #FFD299",
", c #FFD399",
"< c #FFDAAB",
"1 c #FFDBAB",
"2 c #FFDBAC",
"3 c #FFE1BA",
"4 c #FFE5C3",
"5 c #FFE5C4",
"6 c #FFE7C7",
"7 c None",
/* pixels */
"77777777777777777777777777777777",
"77777777777777777777777777777777",
"7777777777777     77777777777777",
"77777777777         777777777777",
"7777777777           77777777777",
"777777777             7777777777",
"777777777       ;;;-- 7777777777",
"77777777      ::>>,>1: 777777777",
"77777777     :<1<1:>2: 777777777",
"77777777    :1331:  :: 7777 7777",
"77777777   :<3431:  :, 777 o 777",
"777  777  ->236531>:2: 77 oo 777",
"77 .o  77 -,145443<1, 77 oOo 777",
"77 .ooo 7 -:13333312: 7 oOo 7777",
"777 oOOo   :,11<<<::   oOOo 7777",
"7777 XOOooo  :::>:  XooO+Oo 7777",
"77777 oOOOOoo     ooOOO+Oo 77777",
"777777 oOO+OOoooooOO++OOo 777777",
"7777777 XoOOOOOOOOOOOOoo 7777777",
"77777777  oooooooooooo  77777777",
"7777777777            7777777777",
"777777777 @@@@@@@@@@@@   7777777",
"77777777 #######$$##$#### 777777",
"7777777 #%%%%%%%%%%%%%%%%# 77777",
"7777777 #%*&*&*%%%%%%*&*%# 77777",
"777777 #%*=**%%#####$%%&*%# 7777",
"777777 #%&*%%##      ##%&%# 7777",
"77777 #%*%%##  777777  #%%# 7777",
"77777 #%%#$   777777777 #%%# 777",
"7777 @%##   777777777777 #%# 777",
"7777 ##  7777777777777777 $# 777",
"77777  7777777777777777777  7777"
};
