<?xml version="1.0" encoding="utf-8"?>
<!-- Generator: Adobe Illustrator 16.0.4, SVG Export Plug-In . SVG Version: 6.00 Build 0)  -->
<!DOCTYPE svg PUBLIC "-//W3C//DTD SVG 1.1//EN" "http://www.w3.org/Graphics/SVG/1.1/DTD/svg11.dtd">
<svg version="1.1" id="Ebene_1" xmlns="http://www.w3.org/2000/svg" xmlns:xlink="http://www.w3.org/1999/xlink" x="0px" y="0px"
	 width="250px" height="300px" viewBox="83.333 100 250 300" enable-background="new 83.333 100 250 300" xml:space="preserve">
<path id="Background_24_" fill="#FFFFFF" d="M323.333,104c3.31,0,6.001,2.692,6.001,6.001v279.998c0,3.309-2.691,6.001-6.001,6.001
	h-230c-3.308,0-6-2.692-6-6.001V110.001c0-3.309,2.692-6.001,6-6.001H323.333"/>
<path fill="#1D1D1B" stroke="#1D1D1B" stroke-width="5" stroke-miterlimit="10" d="M331.134,148h-245.2"/>
<g>
	<path fill="#1D1D1B" d="M323.333,104c3.312,0,6.001,2.692,6.001,6.001V390c0,3.309-2.689,6-6.001,6h-230c-3.309,0-6-2.691-6-6V110
		c0-3.309,2.691-6,6-6H323.333 M323.333,100h-230c-5.5,0-10,4.5-10,10v279.999c0,5.501,4.5,10.001,10,10.001h230
		c5.5,0,10-4.5,10-10.001V110C333.333,104.5,328.833,100,323.333,100L323.333,100z"/>
</g>
<g>
	<path fill="#1D1D1B" d="M285.434,281.633h-42.5v28.5c0,8.2-0.5,14.2-1.5,18.102c-1,3.8-2.601,7.199-4.8,10.199
		c-3.399,4.302-8.1,7.699-14,9.899c-5.899,2.3-12.899,3.401-20.899,3.401c-7.301,0-13.801-1.001-19.4-3
		c-5.6-2.001-10.3-5.001-14.1-8.9c-3-3.201-5.102-6.7-6.4-10.6c-1.3-3.901-1.9-10.302-1.9-19.302v-10.101h25.801v15.699
		c0,4.5,1.301,8.001,4,10.301c2.701,2.4,6.601,3.601,11.6,3.601c5.5,0,9.4-1.399,11.5-4.301c2.201-2.898,3.3-8.3,3.3-16.2v-27.3
		h-85.399c-4.301,0-7.699,3.501-7.699,7.7v69c0,4.3,3.5,7.701,7.699,7.701h154.699c4.301,0,7.701-3.501,7.701-7.701v-69
		C293.234,285.034,289.734,281.633,285.434,281.633z"/>
	<path fill="#005CA9" d="M290.634,209.334c1.899,0,3.399-1.5,3.399-3.4c0-1.899-1.5-3.399-3.399-3.399h-35v-4.101h35
		c1.899,0,3.399-1.5,3.399-3.399c0-1.9-1.5-3.4-3.399-3.4h-35v-3.8c0-4.3-3.501-7.7-7.7-7.7h-78.301c-4.3,0-7.699,3.5-7.699,7.7v3.8
		h-35.899c-1.9,0-3.4,1.5-3.4,3.4c0,1.899,1.5,3.399,3.4,3.399h35.8v4.101h-35.8c-1.9,0-3.4,1.5-3.4,3.399c0,1.9,1.5,3.4,3.4,3.4
		h35.8v4.1h-35.8c-1.9,0-3.4,1.5-3.4,3.4c0,1.898,1.5,3.398,3.4,3.398h35.8v4.102h-35.8c-1.9,0-3.4,1.5-3.4,3.398
		c0,1.9,1.5,3.4,3.4,3.4h35.8v4.1h-35.8c-1.9,0-3.4,1.5-3.4,3.4s1.5,3.399,3.4,3.399h35.8v4.101h-35.8c-1.9,0-3.4,1.5-3.4,3.399
		c0,1.901,1.5,3.401,3.4,3.401h35.8v4.698c0,4.302,3.5,7.7,7.7,7.7h46.8v-46.9h26.7v46.9h5.001c4.299,0,7.699-3.499,7.699-7.7
		v-4.698h35c1.898,0,3.398-1.5,3.398-3.4c0-1.899-1.5-3.399-3.398-3.399h-35v-4.101h35c1.898,0,3.398-1.5,3.398-3.399
		c0-1.901-1.5-3.401-3.398-3.401h-35v-4.099h35c1.898,0,3.398-1.5,3.398-3.401c0-1.898-1.5-3.398-3.398-3.398h-35v-4h35
		c1.898,0,3.398-1.5,3.398-3.4c0-1.899-1.5-3.399-3.398-3.399h-35v-4.2H290.634L290.634,209.334z"/>
</g>
<g>
	<rect x="87.333" y="116.85" fill="none" width="241.5" height="30.5"/>
	<path fill="#1D1D1B" d="M173.971,127.673h3.434v2.086c0,0.602,0.18,1.061,0.539,1.377c0.359,0.316,0.875,0.475,1.548,0.475
		c0.733,0,1.245-0.191,1.534-0.574c0.289-0.383,0.435-1.102,0.435-2.156v-12.035h3.552v12.199c0,1.094-0.064,1.896-0.193,2.408
		c-0.129,0.512-0.342,0.963-0.639,1.354c-0.453,0.579-1.074,1.02-1.863,1.324c-0.789,0.305-1.715,0.457-2.776,0.457
		c-0.978,0-1.84-0.133-2.59-0.398s-1.375-0.66-1.875-1.184c-0.397-0.422-0.681-0.892-0.851-1.412
		c-0.166-0.52-0.252-1.377-0.252-2.572L173.971,127.673L173.971,127.673z"/>
	<path fill="#1D1D1B" d="M187.389,129.325v-3.211h6.586v3.211H187.389z"/>
	<path fill="#1D1D1B" d="M196.471,134.106v-17.262h3.551v14.074h8.427v3.187L196.471,134.106L196.471,134.106z"/>
	<path fill="#1D1D1B" d="M210.169,119.95v-3.105h3.412v3.105H210.169z M210.169,134.106v-12.738h3.412v12.737L210.169,134.106
		L210.169,134.106z"/>
	<path fill="#1D1D1B" d="M216.626,134.106v-12.738h3.34v1.512c0.478-0.617,1.039-1.08,1.688-1.389
		c0.646-0.308,1.369-0.462,2.166-0.462c1.408,0,2.461,0.366,3.16,1.096s1.049,1.83,1.049,3.299v8.684h-3.411v-7.701
		c0-0.914-0.155-1.566-0.463-1.957c-0.31-0.391-0.812-0.586-1.507-0.586c-0.806,0-1.44,0.24-1.912,0.721
		c-0.467,0.48-0.702,1.135-0.702,1.962v7.559H216.626L216.626,134.106z"/>
	<path fill="#1D1D1B" d="M231.029,134.106v-17.262h3.316v9.059l4.055-4.536h4.102l-4.441,4.723l4.713,8.015h-4.088l-3.047-5.426
		l-1.289,1.395v4.031L231.029,134.106L231.029,134.106z"/>
</g>
</svg>
