<?xml version="1.0" encoding="UTF-8" standalone="no"?><!DOCTYPE svg PUBLIC "-//W3C//DTD SVG 1.1//EN" "http://www.w3.org/Graphics/SVG/1.1/DTD/svg11.dtd"><svg width="100%" height="100%" viewBox="0 0 1080 1080" version="1.1" xmlns="http://www.w3.org/2000/svg" xmlns:xlink="http://www.w3.org/1999/xlink" xml:space="preserve" xmlns:serif="http://www.serif.com/" style="fill-rule:evenodd;clip-rule:evenodd;stroke-linejoin:round;stroke-miterlimit:2;"><rect id="Icon" x="0" y="0" width="1080" height="1080" style="fill:none;"/><path d="M835.364,0c135.109,0 244.636,109.527 244.636,244.636c-0,176.614 -0,414.114 -0,590.728c-0,135.109 -109.527,244.636 -244.636,244.636l-590.728,0c-135.109,-0 -244.636,-109.527 -244.636,-244.636c0,-176.614 0,-414.114 0,-590.728c0,-135.109 109.527,-244.636 244.636,-244.636l590.728,0Z" style="fill:#262626;"/><rect x="165.201" y="178.357" width="749.598" height="723.285" style="fill:none;"/><clipPath id="_clip1"><rect x="165.201" y="178.357" width="749.598" height="723.285"/></clipPath><g clip-path="url(#_clip1)"><g><path d="M476.739,603.757l44.666,44.666c17.536,17.536 45.967,17.536 63.503,-0l46.79,-46.79l123.891,123.891l-157.512,157.512c-24.809,24.809 -65.032,24.809 -89.841,-0l-155.388,-155.388l123.891,-123.891Z" style="fill:url(#_Linear2);"/><path d="M623.244,610.087l38.335,-38.336c17.536,-17.535 17.536,-45.967 0,-63.502l-43.958,-43.958l123.892,-123.892l154.679,154.68c24.809,24.809 24.809,65.033 0,89.842l-149.057,149.057l-123.891,-123.891Z" style="fill:url(#_Linear3);"/><path d="M623.244,469.913l-38.336,-38.336c-17.536,-17.536 -45.967,-17.536 -63.503,0l-47.58,47.581l-123.891,-123.892l158.302,-158.302c24.809,-24.809 65.032,-24.809 89.841,0l149.058,149.058l-123.891,123.891Z" style="fill:url(#_Linear4);"/><path d="M483.069,610.087l-272.95,272.95c-11.913,11.913 -28.071,18.606 -44.918,18.606l-0.001,-335.329c-0,-16.849 6.693,-33.007 18.607,-44.921l175.371,-175.371l123.891,123.891l-38.335,38.336c-17.536,17.535 -17.536,45.967 -0,63.502l38.335,38.336Z" style="fill:url(#_Linear5);"/></g></g><defs><linearGradient id="_Linear2" x1="0" y1="0" x2="1" y2="0" gradientUnits="userSpaceOnUse" gradientTransform="matrix(-175.572,-175.572,175.572,-175.572,553.156,765.128)"><stop offset="0" style="stop-color:#df002c;stop-opacity:1"/><stop offset="1" style="stop-color:#7f0019;stop-opacity:1"/></linearGradient><linearGradient id="_Linear3" x1="0" y1="0" x2="1" y2="0" gradientUnits="userSpaceOnUse" gradientTransform="matrix(-311.942,336.954,-336.954,-311.942,851.942,450.828)"><stop offset="0" style="stop-color:#cb1133;stop-opacity:1"/><stop offset="1" style="stop-color:#7d0017;stop-opacity:1"/></linearGradient><linearGradient id="_Linear4" x1="0" y1="0" x2="1" y2="0" gradientUnits="userSpaceOnUse" gradientTransform="matrix(392.877,383.037,-383.037,392.877,452.682,252.518)"><stop offset="0" style="stop-color:#bd0625;stop-opacity:1"/><stop offset="1" style="stop-color:#690012;stop-opacity:1"/></linearGradient><linearGradient id="_Linear5" x1="0" y1="0" x2="1" y2="0" gradientUnits="userSpaceOnUse" gradientTransform="matrix(512.942,-512.942,478.15,478.15,165.2,810.864)"><stop offset="0" style="stop-color:#9b081f;stop-opacity:1"/><stop offset="1" style="stop-color:#4f000c;stop-opacity:1"/></linearGradient></defs></svg>