o top
v -0.375000 0.500000 0.500000
v -0.375000 0.500000 -0.500000
v 0.375000 0.500000 -0.500000
v 0.375000 0.500000 0.500000
vt 0.187500 1.000000
vt 0.187500 0.000000
vt 0.812500 0.000000
vt 0.812500 1.000000
vn 0.0000 1.0000 0.0000
usemtl block/anvil_top
s off
f 4/1/1 3/2/1 2/3/1 1/4/1
o base
v -0.375000 0.125000 -0.500000
v -0.375000 0.125000 0.500000
v -0.375000 0.500000 0.500000
v -0.375000 0.500000 -0.500000
v 0.375000 0.500000 -0.500000
v 0.375000 0.125000 -0.500000
v 0.375000 0.500000 0.500000
v 0.375000 0.125000 0.500000
v -0.125000 0.125000 0.250000
v -0.125000 0.125000 -0.250000
v -0.125000 -0.187500 -0.250000
v -0.125000 -0.187500 0.250000
v 0.125000 0.125000 -0.250000
v 0.125000 -0.187500 -0.250000
v 0.125000 0.125000 0.250000
v 0.125000 -0.187500 0.250000
v -0.250000 -0.187500 0.312500
v -0.250000 -0.187500 -0.312500
v -0.250000 -0.250000 -0.312500
v -0.250000 -0.250000 0.312500
v 0.250000 -0.187500 -0.312500
v 0.250000 -0.250000 -0.312500
v 0.250000 -0.187500 0.312500
v 0.250000 -0.250000 0.312500
v -0.375000 -0.250000 0.375000
v -0.375000 -0.250000 -0.375000
v -0.375000 -0.500000 -0.375000
v -0.375000 -0.500000 0.375000
v 0.375000 -0.250000 -0.375000
v 0.375000 -0.500000 -0.375000
v 0.375000 -0.250000 0.375000
v 0.375000 -0.500000 0.375000
vt 1.000000 1.000000
vt 0.000000 1.000000
vt 0.000000 0.625000
vt 1.000000 0.625000
vt 0.125000 0.625000
vt 0.875000 0.625000
vt 0.875000 1.000000
vt 0.125000 1.000000
vt 1.000000 1.000000
vt 0.000000 1.000000
vt 0.000000 0.625000
vt 1.000000 0.625000
vt 0.125000 0.625000
vt 0.875000 0.625000
vt 0.875000 1.000000
vt 0.125000 1.000000
vt 0.750000 0.625000
vt 0.250000 0.625000
vt 0.250000 0.312500
vt 0.750000 0.312500
vt 0.625000 0.625000
vt 0.375000 0.625000
vt 0.375000 0.312500
vt 0.625000 0.312500
vt 0.750000 0.625000
vt 0.250000 0.625000
vt 0.250000 0.312500
vt 0.750000 0.312500
vt 0.625000 0.625000
vt 0.375000 0.625000
vt 0.375000 0.312500
vt 0.625000 0.312500
vt 0.187500 0.250000
vt 0.812500 0.250000
vt 0.812500 0.312500
vt 0.187500 0.312500
vt 0.250000 0.250000
vt 0.750000 0.250000
vt 0.750000 0.312500
vt 0.250000 0.312500
vt 0.812500 0.312500
vt 0.187500 0.312500
vt 0.187500 0.250000
vt 0.812500 0.250000
vt 0.750000 0.312500
vt 0.250000 0.312500
vt 0.250000 0.250000
vt 0.750000 0.250000
vt 0.187500 0.250000
vt 0.812500 0.250000
vt 0.812500 0.750000
vt 0.187500 0.750000
vt 0.875000 0.250000
vt 0.125000 0.250000
vt 0.125000 0.000000
vt 0.875000 0.000000
vt 0.875000 0.250000
vt 0.125000 0.250000
vt 0.125000 0.000000
vt 0.875000 0.000000
vt 0.125000 0.000000
vt 0.875000 0.000000
vt 0.875000 0.250000
vt 0.125000 0.250000
vt 0.875000 0.250000
vt 0.125000 0.250000
vt 0.125000 0.000000
vt 0.875000 0.000000
vt 0.125000 0.875000
vt 0.125000 0.125000
vt 0.875000 0.125000
vt 0.875000 0.875000
vt 0.875000 0.125000
vt 0.875000 0.875000
vt 0.125000 0.875000
vt 0.125000 0.125000
vt 0.187500 0.000000
vt 0.812500 0.000000
vt 0.812500 1.000000
vt 0.187500 1.000000
vn -1.0000 0.0000 0.0000
vn 0.0000 0.0000 -1.0000
vn 1.0000 0.0000 0.0000
vn 0.0000 -0.0000 1.0000
vn 0.0000 1.0000 0.0000
vn 0.0000 -1.0000 -0.0000
usemtl block/anvil
s off
f 5/5/2 6/6/2 7/7/2 8/8/2
f 8/9/3 9/10/3 10/11/3 5/12/3
f 9/13/4 11/14/4 12/15/4 10/16/4
f 6/17/5 12/18/5 11/19/5 7/20/5
f 13/21/2 14/22/2 15/23/2 16/24/2
f 14/25/3 17/26/3 18/27/3 15/28/3
f 17/29/4 19/30/4 20/31/4 18/32/4
f 19/33/5 13/34/5 16/35/5 20/36/5
f 21/37/2 22/38/2 23/39/2 24/40/2
f 22/41/3 25/42/3 26/43/3 23/44/3
f 25/45/4 27/46/4 28/47/4 26/48/4
f 27/49/5 21/50/5 24/51/5 28/52/5
f 27/53/6 25/54/6 22/55/6 21/56/6
f 29/57/2 30/58/2 31/59/2 32/60/2
f 30/61/3 33/62/3 34/63/3 31/64/3
f 33/65/4 35/66/4 36/67/4 34/68/4
f 35/69/5 29/70/5 32/71/5 36/72/5
f 32/73/7 31/74/7 34/75/7 36/76/7
f 35/77/6 33/78/6 30/79/6 29/80/6
f 6/81/7 5/82/7 10/83/7 12/84/7
