o banner_wall
v 0.047582 3.878225 0.900001
v 0.047582 3.878225 -0.899999
v 0.047582 3.678225 -0.899999
v 0.047582 3.678225 0.900001
v 0.247582 3.878225 -0.899999
v 0.247582 3.678225 -0.899999
v 0.247582 3.878225 0.900001
v 0.247582 3.678225 0.900001
v 0.253119 3.877541 0.912565
v 0.253119 3.877541 -0.887435
v 0.253119 0.277541 -0.887436
v 0.253119 0.277541 0.912564
v 0.341038 3.877541 -0.887435
v 0.341038 0.277541 -0.887436
v 0.341038 3.877541 0.912565
v 0.341038 0.277541 0.912564
vt 0.375000 0.281250
vt 0.687500 0.281250
vt 0.687500 0.312500
vt 0.375000 0.312500
vt 0.343750 0.281250
vt 0.375000 0.281250
vt 0.375000 0.312500
vt 0.343750 0.312500
vt 0.000000 0.281250
vt 0.031250 0.281250
vt 0.031250 0.312500
vt -0.000000 0.312500
vt 0.343750 0.312500
vt 0.656250 0.312500
vt 0.656250 0.343750
vt 0.343750 0.343750
vt 0.031250 0.312500
vt 0.343750 0.312500
vt 0.343750 0.343750
vt 0.031250 0.343750
vt 0.656250 0.984375
vt 0.343750 0.984375
vt 0.343750 0.359375
vt 0.656250 0.359375
vt 0.328125 0.984375
vt 0.328125 0.359375
vt 0.015625 0.984375
vt 0.015625 0.359375
vt -0.000000 0.984375
vt 0.000000 0.359375
vt 0.328125 0.984375
vt 0.640625 0.984375
vt 0.640625 1.000000
vt 0.328125 1.000000
vt 0.328125 1.000000
vt 0.015625 1.000000
vt 0.031250 0.312500
vt 0.343750 0.312500
vt 0.343750 0.281250
vt 0.031250 0.281250
vn -1.0000 0.0000 0.0000
vn 0.0000 0.0000 -1.0000
vn 0.0000 -0.0000 1.0000
vn 0.0000 -1.0000 -0.0000
vn 0.0000 1.0000 0.0000
vn 1.0000 0.0000 0.0000
usemtl banner_wall
s off
f 1/1/1 2/2/1 3/3/1 4/4/1
f 2/5/2 5/6/2 6/7/2 3/8/2
f 7/9/3 1/10/3 4/11/3 8/12/3
f 4/13/4 3/14/4 6/15/4 8/16/4
f 7/17/5 5/18/5 2/19/5 1/20/5
f 9/21/1 10/22/1 11/23/1 12/24/1
f 10/22/2 13/25/2 14/26/2 11/23/2
f 13/25/6 15/27/6 16/28/6 14/26/6
f 15/27/3 9/29/3 12/30/3 16/28/3
f 12/31/4 11/32/4 14/33/4 16/34/4
f 15/27/5 13/25/5 10/35/5 9/36/5
f 8/37/6 6/38/6 5/39/6 7/40/6
