o bell
v -0.187500 -0.125525 0.187500
v -0.187500 0.311975 0.187500
v -0.187500 -0.125525 -0.187500
v -0.187500 0.311975 -0.187500
v 0.187500 -0.125525 0.187500
v 0.187500 0.311975 0.187500
v 0.187500 -0.125525 -0.187500
v 0.187500 0.311975 -0.187500
v -0.250000 -0.250042 0.250000
v -0.250000 -0.125042 0.250000
v -0.250000 -0.250042 -0.250000
v -0.250000 -0.125042 -0.250000
v 0.250000 -0.250042 0.250000
v 0.250000 -0.125042 0.250000
v 0.250000 -0.250042 -0.250000
v 0.250000 -0.125042 -0.250000
vt 0.062500 0.562500
vt 0.062500 1.000000
vt 0.437500 1.000000
vt 0.437500 0.562500
vt 0.062500 0.562500
vt 0.062500 1.000000
vt 0.437500 1.000000
vt 0.437500 0.562500
vt 0.062500 1.000000
vt 0.062500 0.562500
vt 0.437500 0.562500
vt 0.437500 1.000000
vt -0.000000 0.437500
vt -0.000000 0.562500
vt 0.500000 0.562500
vt 0.500000 0.437500
vt -0.000000 0.437500
vt -0.000000 0.562500
vt 0.500000 0.562500
vt 0.500000 0.437500
vt -0.000000 0.562500
vt -0.000000 0.437500
vt 0.500000 0.437500
vt 0.500000 0.562500
vt 0.062500 0.937500
vt 0.437500 0.937500
vt 0.437500 0.937500
vt 0.062500 0.937500
vt 0.062500 0.562500
vt 0.437500 0.562500
vt 0.500000 1.000000
vt -0.000000 1.000000
vt -0.000000 0.500000
vt 0.500000 0.500000
vt -0.000000 1.000000
vt 0.500000 1.000000
vt 0.500000 0.500000
vt -0.000000 0.500000
vn -1.0000 0.0000 0.0000
vn 0.0000 0.0000 -1.0000
vn 1.0000 -0.0000 0.0000
vn 0.0000 -0.0000 1.0000
vn 0.0000 -1.0000 0.0000
vn 0.0000 1.0000 0.0000

usemtl block/bell_side
s off
f 1/1/1 2/2/1 4/3/1 3/4/1
f 3/5/2 4/6/2 8/7/2 7/8/2
f 7/8/3 8/7/3 6/9/3 5/10/3
f 5/11/4 6/12/4 2/2/4 1/1/4
f 9/13/1 10/14/1 12/15/1 11/16/1
f 11/17/2 12/18/2 16/19/2 15/20/2
f 15/20/3 16/19/3 14/21/3 13/22/3
f 13/23/4 14/24/4 10/14/4 9/13/4

usemtl block/bell_top
f 3/25/5 7/26/5 5/11/5 1/1/5
f 8/27/6 4/28/6 2/29/6 6/30/6
f 16/31/6 12/32/6 10/33/6 14/34/6

usemtl block/bell_bottom
f 11/35/5 15/36/5 13/37/5 9/38/5
