o cow
v 0.125000 0.750000 0.187500
v 0.125000 0.750000 0.437500
v 0.125000 -0.000000 0.187500
v 0.125000 -0.000000 0.437500
v 0.375000 0.750000 0.437500
v 0.375000 0.750000 0.187500
v 0.375000 -0.000000 0.437500
v 0.375000 -0.000000 0.187500
v -0.375000 1.375000 0.500000
v -0.375000 0.750000 0.500000
v -0.375000 1.375000 -0.625000
v -0.375000 0.750000 -0.625000
v 0.375000 0.750000 0.500000
v 0.375000 1.375000 0.500000
v 0.375000 0.750000 -0.625000
v 0.375000 1.375000 -0.625000
v -0.125000 0.750000 -0.250000
v -0.125000 0.687500 -0.250000
v -0.125000 0.750000 -0.625000
v -0.125000 0.687500 -0.625000
v 0.125000 0.687500 -0.250000
v 0.125000 0.750000 -0.250000
v 0.125000 0.687500 -0.625000
v 0.125000 0.750000 -0.625000
v -0.250000 1.500000 0.500000
v -0.250000 1.500000 0.875000
v -0.250000 1.000000 0.500000
v -0.250000 1.000000 0.875000
v 0.250000 1.500000 0.875000
v 0.250000 1.500000 0.500000
v 0.250000 1.000000 0.875000
v 0.250000 1.000000 0.500000
v 0.250000 1.562500 0.687500
v 0.250000 1.562500 0.750000
v 0.250000 1.375000 0.687500
v 0.250000 1.375000 0.750000
v 0.312500 1.562500 0.750000
v 0.312500 1.562500 0.687500
v 0.312500 1.375000 0.750000
v 0.312500 1.375000 0.687500
v -0.312500 1.562500 0.687500
v -0.312500 1.562500 0.750000
v -0.312500 1.375000 0.687500
v -0.312500 1.375000 0.750000
v -0.250000 1.562500 0.750000
v -0.250000 1.562500 0.687500
v -0.250000 1.375000 0.750000
v -0.250000 1.375000 0.687500
v -0.375000 0.750000 -0.562500
v -0.375000 0.750000 -0.312500
v -0.375000 0.000000 -0.562500
v -0.375000 0.000000 -0.312500
v -0.125000 0.750000 -0.312500
v -0.125000 0.750000 -0.562500
v -0.125000 0.000000 -0.312500
v -0.125000 0.000000 -0.562500
v 0.125000 0.750000 -0.562500
v 0.125000 0.750000 -0.312500
v 0.125000 0.000000 -0.562500
v 0.125000 0.000000 -0.312500
v 0.375000 0.750000 -0.312500
v 0.375000 0.750000 -0.562500
v 0.375000 0.000000 -0.312500
v 0.375000 0.000000 -0.562500
v -0.375000 0.750000 0.187500
v -0.375000 0.750000 0.437500
v -0.375000 -0.000000 0.187500
v -0.375000 -0.000000 0.437500
v -0.125000 0.750000 0.437500
v -0.125000 0.750000 0.187500
v -0.125000 -0.000000 0.437500
v -0.125000 -0.000000 0.187500
vn -0.0000 -0.0000 1.0000
vn -1.0000 -0.0000 -0.0000
vn -0.0000 -0.0000 -1.0000
vn 1.0000 -0.0000 -0.0000
vn -0.0000 1.0000 -0.0000
vn -0.0000 -1.0000 -0.0000
vt 0.062500 0.000000
vt 0.125000 0.000000
vt 0.125000 0.375000
vt 0.062500 0.375000
vt 0.000000 0.000000
vt 0.000000 0.375000
vt 0.187500 0.000000
vt 0.250000 0.000000
vt 0.250000 0.375000
vt 0.187500 0.375000
vt 0.125000 0.500000
vt 0.062500 0.500000
vt 0.187500 0.500000
vt 0.437500 0.000000
vt 0.625000 0.000000
vt 0.625000 0.562500
vt 0.437500 0.562500
vt 0.281250 0.000000
vt 0.281250 0.562500
vt 0.781250 0.000000
vt 0.968750 0.000000
vt 0.968750 0.562500
vt 0.781250 0.562500
vt 0.625000 0.875000
vt 0.437500 0.875000
vt 0.812500 0.562500
vt 0.812500 0.875000
vt 0.828125 0.781250
vt 0.890625 0.781250
vt 0.890625 0.968750
vt 0.828125 0.968750
vt 0.812500 0.781250
vt 0.812500 0.968750
vt 0.906250 0.781250
vt 0.968750 0.781250
vt 0.968750 0.968750
vt 0.906250 0.968750
vt 0.890625 1.000000
vt 0.828125 1.000000
vt 0.953125 0.968750
vt 0.953125 1.000000
vt 0.093750 0.562500
vt 0.218750 0.562500
vt 0.218750 0.812500
vt 0.093750 0.812500
vt 0.000000 0.562500
vt 0.000000 0.812500
vt 0.312500 0.562500
vt 0.437500 0.812500
vt 0.312500 0.812500
vt 0.218750 1.000000
vt 0.093750 1.000000
vt 0.343750 0.812500
vt 0.343750 1.000000
vt 0.359375 0.875000
vt 0.375000 0.875000
vt 0.375000 0.968750
vt 0.359375 0.968750
vt 0.343750 0.875000
vt 0.343750 0.968750
vt 0.390625 0.875000
vt 0.406250 0.875000
vt 0.406250 0.968750
vt 0.390625 0.968750
vt 0.375000 1.000000
vt 0.359375 1.000000
vt 0.390625 1.000000
s 0
usemtl entity/cow/cow
f 4/1/1 7/2/1 5/3/1 2/4/1
f 3/5/2 4/1/2 2/4/2 1/6/2
f 8/7/3 3/8/3 1/9/3 6/10/3
f 7/2/4 8/7/4 6/10/4 5/3/4
f 6/11/5 1/12/5 2/4/5 5/3/5
f 7/10/6 4/3/6 3/11/6 8/13/6
f 12/14/6 15/15/6 13/16/6 10/17/6
f 11/18/2 12/14/2 10/17/2 9/19/2
f 16/20/5 11/21/5 9/22/5 14/23/5
f 15/15/4 16/20/4 14/23/4 13/16/4
f 14/24/1 9/25/1 10/17/1 13/16/1
f 15/26/3 12/16/3 11/24/3 16/27/3
f 20/28/6 23/29/6 21/30/6 18/31/6
f 19/32/2 20/28/2 18/31/2 17/33/2
f 24/34/5 19/35/5 17/36/5 22/37/5
f 23/29/4 24/34/4 22/37/4 21/30/4
f 22/38/1 17/39/1 18/31/1 21/30/1
f 23/40/3 20/30/3 19/38/3 24/41/3
f 28/42/1 31/43/1 29/44/1 26/45/1
f 27/46/2 28/42/2 26/45/2 25/47/2
f 32/48/3 27/17/3 25/49/3 30/50/3
f 31/43/4 32/48/4 30/50/4 29/44/4
f 30/51/5 25/52/5 26/45/5 29/44/5
f 31/53/6 28/44/6 27/51/6 32/54/6
f 36/55/1 39/56/1 37/57/1 34/58/1
f 35/59/2 36/55/2 34/58/2 33/60/2
f 40/61/3 35/62/3 33/63/3 38/64/3
f 39/56/4 40/61/4 38/64/4 37/57/4
f 38/65/5 33/66/5 34/58/5 37/57/5
f 39/64/6 36/57/6 35/65/6 40/67/6
f 44/55/1 47/56/1 45/57/1 42/58/1
f 43/59/2 44/55/2 42/58/2 41/60/2
f 48/61/3 43/62/3 41/63/3 46/64/3
f 47/56/4 48/61/4 46/64/4 45/57/4
f 46/65/5 41/66/5 42/58/5 45/57/5
f 47/64/6 44/57/6 43/65/6 48/67/6
f 52/1/1 55/2/1 53/3/1 50/4/1
f 51/5/2 52/1/2 50/4/2 49/6/2
f 56/7/3 51/8/3 49/9/3 54/10/3
f 55/2/4 56/7/4 54/10/4 53/3/4
f 54/11/5 49/12/5 50/4/5 53/3/5
f 55/10/6 52/3/6 51/11/6 56/13/6
f 60/1/1 63/2/1 61/3/1 58/4/1
f 59/5/2 60/1/2 58/4/2 57/6/2
f 64/7/3 59/8/3 57/9/3 62/10/3
f 63/2/4 64/7/4 62/10/4 61/3/4
f 62/11/5 57/12/5 58/4/5 61/3/5
f 63/10/6 60/3/6 59/11/6 64/13/6
f 68/1/1 71/2/1 69/3/1 66/4/1
f 67/5/2 68/1/2 66/4/2 65/6/2
f 72/7/3 67/8/3 65/9/3 70/10/3
f 71/2/4 72/7/4 70/10/4 69/3/4
f 70/11/5 65/12/5 66/4/5 69/3/5
f 71/10/6 68/3/6 67/11/6 72/13/6
