o decorated_pot
v -0.437500 -0.500000 -0.437500
v 0.437500 0.500000 0.437500
v 0.437500 0.500000 -0.437500
v -0.437500 0.500000 0.437500
v 0.200000 0.487500 0.200000
v 0.200000 0.487500 -0.200000
v -0.200000 0.487500 -0.200000
v -0.200000 0.487500 0.200000
v 0.200000 0.575000 -0.200000
v -0.200000 0.575000 -0.200000
v -0.200000 0.575000 0.200000
v 0.200000 0.575000 0.200000
v 0.243750 0.568750 0.243750
v 0.243750 0.568750 -0.243750
v -0.243750 0.568750 -0.243750
v -0.243750 0.568750 0.243750
v 0.243750 0.743750 -0.243750
v -0.243750 0.743750 -0.243750
v -0.243750 0.743750 0.243750
v 0.243750 0.743750 0.243750
v -0.437500 0.500000 -0.437500
v -0.437500 -0.500000 0.437500
v 0.437500 -0.500000 -0.437500
v 0.437500 -0.500000 0.437500
vn -0.0000 1.0000 -0.0000
vn -0.0000 -0.0000 1.0000
vn -0.0000 -0.0000 -1.0000
vn -1.0000 -0.0000 -0.0000
vn 1.0000 -0.0000 -0.0000
vn -0.0000 -1.0000 -0.0000
vt 0.500000 0.750122
vt 0.749878 0.750122
vt 0.749878 1.000000
vt 0.500000 1.000000
vt 0.500000 0.750000
vt 0.749878 0.750000
vt 0.749878 0.656372
vt 0.500000 0.656372
vt 0.000000 0.750000
vt 0.249878 0.750000
vt 0.249878 0.656372
vt 0.000000 0.656372
vt 0.250000 0.750000
vt 0.499878 0.750000
vt 0.499878 0.656372
vt 0.250000 0.656372
vt 0.750000 0.750000
vt 0.999878 0.750000
vt 0.999878 0.656372
vt 0.750000 0.656372
vt 0.250000 1.000000
vt 0.499878 1.000000
vt 0.499878 0.750122
vt 0.250000 0.750122
vt 0.375000 0.656372
vt 0.562378 0.656372
vt 0.562378 0.843750
vt 0.375000 0.843750
vt 0.375000 0.656250
vt 0.562378 0.656250
vt 0.562378 0.625122
vt 0.375000 0.625122
vt 0.000000 0.656250
vt 0.187378 0.656250
vt 0.187378 0.625122
vt 0.000000 0.625122
vt 0.187500 0.656250
vt 0.374878 0.656250
vt 0.374878 0.625122
vt 0.187500 0.625122
vt 0.562500 0.656250
vt 0.749878 0.656250
vt 0.749878 0.625122
vt 0.562500 0.625122
vt 0.187500 0.843750
vt 0.374878 0.843750
vt 0.374878 0.656372
vt 0.187500 0.656372
vt 0.437500 0.593750
vt 0.875000 0.593750
vt 0.875000 0.156250
vt 0.437500 0.156250
vt 0.062500 1.000000
vt 0.937500 1.000000
vt 0.937500 0.000000
vt 0.062500 0.000000
s 0
usemtl entity/decorated_pot/decorated_pot_base
f 13/1/1 14/2/1 15/3/1 16/4/1
f 17/5/2 18/6/2 15/7/2 14/8/2
f 19/9/3 20/10/3 13/11/3 16/12/3
f 20/13/4 17/14/4 14/15/4 13/16/4
f 18/17/5 19/18/5 16/19/5 15/20/5
f 19/21/6 18/22/6 17/23/6 20/24/6
f 5/25/1 6/26/1 7/27/1 8/28/1
f 9/29/2 10/30/2 7/31/2 6/32/2
f 11/33/3 12/34/3 5/35/3 8/36/3
f 12/37/4 9/38/4 6/39/4 5/40/4
f 10/41/5 11/42/5 8/43/5 7/44/5
f 11/45/6 10/46/6 9/47/6 12/48/6
f 2/49/1 3/50/1 21/51/1 4/52/1
f 24/49/1 23/50/1 1/51/1 22/52/1
usemtl entity/decorated_pot/decorated_pot_side
f 2/53/4 3/54/4 23/55/4 24/56/4
f 3/53/2 21/54/2 1/55/2 23/56/2
f 21/53/5 4/54/5 22/55/5 1/56/5
f 4/53/3 2/54/3 24/55/3 22/56/3
