# Blender v2.79 (sub 0) OBJ File: 'DragonHead_Floor.blend'
# www.blender.org
mtllib dragon_head.mtl
o Cube
v -0.375000 -0.499438 0.469105
v -0.375000 0.250562 0.469105
v -0.375000 -0.499438 -0.280895
v -0.375000 0.250562 -0.280895
v 0.375000 -0.499438 0.469105
v 0.375000 0.250562 0.469105
v 0.375000 -0.499438 -0.280895
v 0.375000 0.250562 -0.280895
v -0.234375 0.250562 0.234730
v -0.234375 0.438062 0.234730
v -0.234375 0.250562 -0.046520
v -0.234375 0.438062 -0.046520
v -0.140625 0.250562 0.234730
v -0.140625 0.438062 0.234730
v -0.140625 0.250562 -0.046520
v -0.140625 0.438062 -0.046520
v 0.136875 0.250562 0.234730
v 0.136875 0.438062 0.234730
v 0.136875 0.250562 -0.046520
v 0.136875 0.438062 -0.046520
v 0.230625 0.250562 0.234730
v 0.230625 0.438062 0.234730
v 0.230625 0.250562 -0.046520
v 0.230625 0.438062 -0.046520
v -0.281290 -0.298325 1.219105
v -0.281290 -0.069042 1.219105
v -0.281290 -0.298325 0.469105
v -0.281290 -0.069042 0.469105
v 0.281290 -0.298325 1.219105
v 0.281290 -0.069042 1.219105
v 0.281290 -0.298325 0.469105
v 0.281290 -0.069042 0.469105
v 0.281290 -0.319679 0.466504
v 0.281290 -0.491803 0.436169
v 0.281290 -0.449853 1.205121
v 0.281290 -0.621977 1.174785
v -0.281290 -0.319679 0.466504
v -0.281290 -0.491803 0.436169
v -0.281290 -0.449853 1.205121
v -0.281290 -0.621977 1.174785
v -0.234375 -0.069513 1.125355
v -0.234375 0.024237 1.125355
v -0.234375 -0.069513 0.937855
v -0.234375 0.024237 0.937855
v -0.140625 -0.069513 1.125355
v -0.140625 0.024237 1.125355
v -0.140625 -0.069513 0.937855
v -0.140625 0.024237 0.937855
v 0.186275 -0.069513 1.125355
v 0.186275 0.024237 1.125355
v 0.186275 -0.069513 0.937855
v 0.186275 0.024237 0.937855
v 0.092525 -0.069513 1.125355
v 0.092525 0.024237 1.125355
v 0.092525 -0.069513 0.937855
v 0.092525 0.024237 0.937855
vt 0.500000 0.757812
vt 0.500000 0.820312
vt 0.437500 0.820312
vt 0.437500 0.757812
vt 0.687500 0.757812
vt 0.687500 0.820312
vt 0.625000 0.820312
vt 0.625000 0.757812
vt 0.562500 0.820312
vt 0.562500 0.757812
vt 0.562500 0.820312
vt 0.625000 0.820312
vt 0.625000 0.882812
vt 0.562500 0.882812
vt 0.562500 0.882812
vt 0.500000 0.882812
vt 0.023438 0.960938
vt 0.023438 0.976562
vt 0.000000 0.976562
vt 0.000000 0.960938
vt 0.062500 0.960938
vt 0.062500 0.976562
vt 0.054688 0.976562
vt 0.054688 0.960938
vt 0.031250 0.976562
vt 0.031250 0.960938
vt 0.031250 0.976562
vt 0.039062 0.976562
vt 0.039062 1.000000
vt 0.031250 1.000000
vt 0.031250 1.000000
vt 0.023438 1.000000
vt 0.210938 0.960938
vt 0.210938 0.976562
vt 0.187500 0.976562
vt 0.187500 0.960938
vt 0.250000 0.960938
vt 0.250000 0.976562
vt 0.242188 0.976562
vt 0.242188 0.960938
vt 0.218750 0.976562
vt 0.218750 0.960938
vt 0.218750 0.976562
vt 0.226562 0.976562
vt 0.226562 1.000000
vt 0.218750 1.000000
vt 0.218750 1.000000
vt 0.210938 1.000000
vt 0.750000 0.746094
vt 0.750000 0.765625
vt 0.687500 0.765625
vt 0.687500 0.746094
vt 0.906250 0.746094
vt 0.906250 0.765625
vt 0.859375 0.765625
vt 0.859375 0.746094
vt 0.796875 0.765625
vt 0.796875 0.746094
vt 0.843750 0.828125
vt 0.796875 0.828125
vt 0.796875 0.765625
vt 0.843750 0.765625
vt 0.796875 0.828125
vt 0.750000 0.828125
vt 0.843750 0.746094
vt 0.796875 0.746094
vt 0.796875 0.683594
vt 0.843750 0.683594
vt 0.906250 0.667969
vt 0.906250 0.683594
vt 0.859375 0.683594
vt 0.859375 0.667969
vt 0.750000 0.667969
vt 0.750000 0.683594
vt 0.687500 0.683594
vt 0.687500 0.667969
vt 0.796875 0.667969
vt 0.796875 0.683594
vt 0.796875 0.746094
vt 0.750000 0.746094
vt 0.453125 0.976562
vt 0.453125 0.984375
vt 0.437500 0.984375
vt 0.437500 0.976562
vt 0.484375 0.976562
vt 0.484375 0.984375
vt 0.476562 0.984375
vt 0.476562 0.976562
vt 0.460938 0.984375
vt 0.460938 0.976562
vt 0.460938 0.984375
vt 0.468750 0.984375
vt 0.468750 1.000000
vt 0.460938 1.000000
vt 0.460938 1.000000
vt 0.453125 1.000000
vt 0.453125 0.976562
vt 0.453125 0.984375
vt 0.437500 0.984375
vt 0.437500 0.976562
vt 0.484375 0.976562
vt 0.484375 0.984375
vt 0.476562 0.984375
vt 0.476562 0.976562
vt 0.460938 0.984375
vt 0.460938 0.976562
vt 0.460938 0.984375
vt 0.468750 0.984375
vt 0.468750 1.000000
vt 0.460938 1.000000
vt 0.460938 1.000000
vt 0.453125 1.000000
vn -1.0000 0.0000 0.0000
vn 0.0000 0.0000 -1.0000
vn 1.0000 0.0000 0.0000
vn 0.0000 0.0000 1.0000
vn 0.0000 -1.0000 0.0000
vn 0.0000 1.0000 0.0000
vn 0.0000 -0.9848 -0.1736
vn 0.0000 0.1736 -0.9848
vn 0.0000 -0.1736 0.9848
vn 0.0000 0.9848 0.1736
usemtl None
s off
f 1/1/1 2/2/1 4/3/1 3/4/1
f 3/5/2 4/6/2 8/7/2 7/8/2
f 7/8/3 8/7/3 6/9/3 5/10/3
f 5/10/4 6/9/4 2/2/4 1/1/4
f 3/11/5 7/12/5 5/13/5 1/14/5
f 8/15/6 4/16/6 2/2/6 6/9/6
f 9/17/1 10/18/1 12/19/1 11/20/1
f 11/21/2 12/22/2 16/23/2 15/24/2
f 15/24/3 16/23/3 14/25/3 13/26/3
f 13/26/4 14/25/4 10/18/4 9/17/4
f 11/27/5 15/28/5 13/29/5 9/30/5
f 16/31/6 12/32/6 10/18/6 14/25/6
f 17/33/1 18/34/1 20/35/1 19/36/1
f 19/37/2 20/38/2 24/39/2 23/40/2
f 23/40/3 24/39/3 22/41/3 21/42/3
f 21/42/4 22/41/4 18/34/4 17/33/4
f 19/43/5 23/44/5 21/45/5 17/46/5
f 24/47/6 20/48/6 18/34/6 22/41/6
f 25/49/1 26/50/1 28/51/1 27/52/1
f 27/53/2 28/54/2 32/55/2 31/56/2
f 31/56/3 32/55/3 30/57/3 29/58/3
f 29/58/4 30/57/4 26/50/4 25/49/4
f 27/59/5 31/60/5 29/61/5 25/62/5
f 32/63/6 28/64/6 26/50/6 30/57/6
f 38/65/7 34/66/7 36/67/7 40/68/7
f 38/69/8 37/70/8 33/71/8 34/72/8
f 40/73/1 39/74/1 37/75/1 38/76/1
f 36/77/9 35/78/9 39/74/9 40/73/9
f 33/79/10 37/80/10 39/74/10 35/78/10
f 34/72/3 33/71/3 35/78/3 36/77/3
f 41/81/1 42/82/1 44/83/1 43/84/1
f 43/85/2 44/86/2 48/87/2 47/88/2
f 47/88/3 48/87/3 46/89/3 45/90/3
f 45/90/4 46/89/4 42/82/4 41/81/4
f 43/91/5 47/92/5 45/93/5 41/94/5
f 48/95/6 44/96/6 42/82/6 46/89/6
f 49/97/1 50/98/1 52/99/1 51/100/1
f 51/101/4 52/102/4 56/103/4 55/104/4
f 55/104/3 56/103/3 54/105/3 53/106/3
f 53/106/2 54/105/2 50/98/2 49/97/2
f 51/107/6 55/108/6 53/109/6 49/110/6
f 56/111/5 52/112/5 50/98/5 54/105/5
