# Blender v2.79 (sub 0) OBJ File: ''
# www.blender.org
mtllib hopper_connected.mtl
o hopper
v -0.500000 0.500000 0.500000
v -0.500000 0.500000 -0.500000
v -0.500000 0.125000 -0.500000
v -0.500000 0.125000 0.500000
v 0.500000 0.500000 -0.500000
v 0.500000 0.125000 -0.500000
v 0.500000 0.500000 0.500000
v 0.500000 0.125000 0.500000
v -0.250000 0.125000 0.250000
v -0.250000 0.125000 -0.250000
v -0.250000 -0.250000 -0.250000
v -0.250000 -0.250000 0.250000
v 0.250000 0.125000 -0.250000
v 0.250000 -0.250000 -0.250000
v 0.250000 0.125000 0.250000
v 0.250000 -0.250000 0.250000
v -0.375000 0.500000 0.375000
v -0.375000 0.125000 0.375000
v -0.375000 0.125000 -0.375000
v -0.375000 0.500000 -0.375000
v 0.375000 0.125000 -0.375000
v 0.375000 0.500000 -0.375000
v 0.375000 0.125000 0.375000
v 0.375000 0.500000 0.375000
v -0.125000 0.000000 -0.250000
v -0.125000 0.000000 -0.500000
v -0.125000 -0.250000 -0.500000
v -0.125000 -0.250000 -0.250000
v 0.125000 0.000000 -0.500000
v 0.125000 -0.250000 -0.500000
v 0.125000 0.000000 -0.250000
v 0.125000 -0.250000 -0.250000
vt 0.000000 1.000000
vt 1.000000 1.000000
vt 1.000000 0.625000
vt 0.000000 0.625000
vt 0.000000 1.000000
vt 1.000000 1.000000
vt 1.000000 0.625000
vt 0.000000 0.625000
vt 0.000000 1.000000
vt 0.000000 0.625000
vt 1.000000 1.000000
vt 1.000000 0.625000
vt 0.750000 0.625000
vt 0.250000 0.625000
vt 0.250000 0.250000
vt 0.750000 0.250000
vt 0.750000 0.625000
vt 0.750000 0.250000
vt 0.250000 0.625000
vt 0.250000 0.250000
vt 0.750000 0.625000
vt 0.250000 0.625000
vt 0.250000 0.250000
vt 0.750000 0.250000
vt 0.125000 1.000000
vt 0.125000 0.625000
vt 0.875000 0.625000
vt 0.875000 1.000000
vt 0.125000 1.000000
vt 0.125000 0.625000
vt 0.875000 0.625000
vt 0.875000 1.000000
vt 0.125000 0.625000
vt 0.125000 1.000000
vt 0.875000 1.000000
vt 0.875000 0.625000
vt 0.000000 0.000000
vt 0.000000 1.000000
vt 1.000000 1.000000
vt 1.000000 0.000000
vt 0.749950 0.749950
vt 0.250050 0.749950
vt 0.250050 0.250050
vt 0.749950 0.250050
vt 0.250000 0.500000
vt 0.000000 0.500000
vt 0.000000 0.250000
vt 0.250000 0.250000
vt 0.625000 0.500000
vt 0.375000 0.500000
vt 0.375000 0.250000
vt 0.625000 0.250000
vt 1.000000 0.500000
vt 0.750000 0.500000
vt 0.750000 0.250000
vt 1.000000 0.250000
vt 0.437500 0.250000
vt 0.687500 0.250000
vt 0.687500 0.000000
vt 0.437500 0.000000
vt 0.375000 0.625000
vt 0.625000 0.625000
vt 0.625000 0.375000
vt 0.375000 0.375000
vt 0.875000 0.875000
vt 0.875000 0.125000
vt 1.000000 0.000000
vt 0.125000 0.125000
vt 0.000000 0.000000
vt 0.125000 0.875000
vn -1.0000 0.0000 0.0000
vn 0.0000 0.0000 -1.0000
vn 1.0000 0.0000 0.0000
vn 0.0000 -0.0000 1.0000
vn 0.0000 -1.0000 -0.0000
vn 0.0000 1.0000 0.0000
usemtl block/hopper_outside
s 1
f 1/1/1 2/2/1 3/3/1 4/4/1
f 2/5/2 5/6/2 6/7/2 3/8/2
f 5/6/3 7/9/3 8/10/3 6/7/3
f 7/11/4 1/1/4 4/4/4 8/12/4
f 9/13/1 10/14/1 11/15/1 12/16/1
f 10/14/2 13/17/2 14/18/2 11/15/2
f 13/17/3 15/19/3 16/20/3 14/18/3
f 15/21/4 9/22/4 12/23/4 16/24/4
f 17/25/3 18/26/3 19/27/3 20/28/3
f 20/29/4 19/30/4 21/31/4 22/32/4
f 22/32/1 21/31/1 23/33/1 24/34/1
f 24/35/2 23/36/2 18/26/2 17/25/2
f 4/37/5 3/38/5 6/39/5 8/40/5
f 16/41/5 12/42/5 11/43/5 14/44/5
f 25/45/1 26/46/1 27/47/1 28/48/1
f 26/49/2 29/50/2 30/51/2 27/52/2
f 29/53/3 31/54/3 32/55/3 30/56/3
f 27/57/5 30/58/5 32/59/5 28/60/5
f 26/61/5 29/62/5 31/63/5 25/64/5
usemtl block/hopper_top
f 5/6/6 22/65/6 24/66/6 7/67/6
f 7/67/6 24/66/6 17/68/6 1/69/6
f 1/69/6 17/68/6 20/70/6 2/5/6
f 2/5/6 20/70/6 22/65/6 5/6/6
