o pig
v -0.250000 1.000000 0.375000
v -0.250000 1.000000 0.875000
v -0.250000 0.500000 0.375000
v -0.250000 0.500000 0.875000
v 0.250000 1.000000 0.875000
v 0.250000 1.000000 0.375000
v 0.250000 0.500000 0.875000
v 0.250000 0.500000 0.375000
v -0.312500 0.875000 0.500000
v -0.312500 0.375000 0.500000
v -0.312500 0.875000 -0.500000
v -0.312500 0.375000 -0.500000
v 0.312500 0.375000 0.500000
v 0.312500 0.875000 0.500000
v 0.312500 0.375000 -0.500000
v 0.312500 0.875000 -0.500000
v -0.125000 0.750000 0.875000
v -0.125000 0.750000 0.937500
v -0.125000 0.562500 0.875000
v -0.125000 0.562500 0.937500
v 0.125000 0.750000 0.937500
v 0.125000 0.750000 0.875000
v 0.125000 0.562500 0.937500
v 0.125000 0.562500 0.875000
v -0.312500 0.375000 -0.562500
v -0.312500 0.375000 -0.312500
v -0.312500 -0.000000 -0.562500
v -0.312500 -0.000000 -0.312500
v -0.062500 0.375000 -0.312500
v -0.062500 0.375000 -0.562500
v -0.062500 -0.000000 -0.312500
v -0.062500 -0.000000 -0.562500
v 0.062500 0.375000 -0.562500
v 0.062500 0.375000 -0.312500
v 0.062500 -0.000000 -0.562500
v 0.062500 -0.000000 -0.312500
v 0.312500 0.375000 -0.312500
v 0.312500 0.375000 -0.562500
v 0.312500 -0.000000 -0.312500
v 0.312500 -0.000000 -0.562500
v -0.312500 0.375000 0.187500
v -0.312500 0.375000 0.437500
v -0.312500 0.000000 0.187500
v -0.312500 0.000000 0.437500
v -0.062500 0.375000 0.437500
v -0.062500 0.375000 0.187500
v -0.062500 0.000000 0.437500
v -0.062500 0.000000 0.187500
v 0.062500 0.375000 0.187500
v 0.062500 0.375000 0.437500
v 0.062500 0.000000 0.187500
v 0.062500 0.000000 0.437500
v 0.312500 0.375000 0.437500
v 0.312500 0.375000 0.187500
v 0.312500 0.000000 0.437500
v 0.312500 0.000000 0.187500
vn -0.0000 -0.0000 1.0000
vn -1.0000 -0.0000 -0.0000
vn -0.0000 -0.0000 -1.0000
vn 1.0000 -0.0000 -0.0000
vn -0.0000 1.0000 -0.0000
vn -0.0000 -1.0000 -0.0000
vt 0.125000 0.500000
vt 0.250000 0.500000
vt 0.250000 0.750000
vt 0.125000 0.750000
vt 0.000000 0.500000
vt 0.000000 0.750000
vt 0.375000 0.500000
vt 0.500000 0.500000
vt 0.500000 0.750000
vt 0.375000 0.750000
vt 0.250000 1.000000
vt 0.125000 1.000000
vt 0.375000 1.000000
vt 0.562500 0.000000
vt 0.718750 0.000000
vt 0.718750 0.500000
vt 0.562500 0.500000
vt 0.437500 0.000000
vt 0.437500 0.500000
vt 0.843750 0.000000
vt 1.000000 0.000000
vt 1.000000 0.500000
vt 0.843750 0.500000
vt 0.718750 0.750000
vt 0.562500 0.750000
vt 0.875000 0.500000
vt 0.875000 0.750000
vt 0.265625 0.375000
vt 0.328125 0.375000
vt 0.328125 0.468750
vt 0.265625 0.468750
vt 0.250000 0.375000
vt 0.250000 0.468750
vt 0.343750 0.375000
vt 0.406250 0.375000
vt 0.406250 0.468750
vt 0.343750 0.468750
vt 0.328125 0.500000
vt 0.265625 0.500000
vt 0.390625 0.468750
vt 0.390625 0.500000
vt 0.062500 0.187500
vt 0.125000 0.187500
vt 0.125000 0.375000
vt 0.062500 0.375000
vt 0.000000 0.187500
vt 0.000000 0.375000
vt 0.187500 0.187500
vt 0.250000 0.187500
vt 0.187500 0.375000
vt 0.062500 0.500000
vt 0.187500 0.500000
s 0
usemtl entity/pig/pig
f 4/1/1 7/2/1 5/3/1 2/4/1
f 3/5/2 4/1/2 2/4/2 1/6/2
f 8/7/3 3/8/3 1/9/3 6/10/3
f 7/2/4 8/7/4 6/10/4 5/3/4
f 6/11/5 1/12/5 2/4/5 5/3/5
f 7/10/6 4/3/6 3/11/6 8/13/6
f 12/14/6 15/15/6 13/16/6 10/17/6
f 11/18/2 12/14/2 10/17/2 9/19/2
f 16/20/5 11/21/5 9/22/5 14/23/5
f 15/15/4 16/20/4 14/23/4 13/16/4
f 14/24/1 9/25/1 10/17/1 13/16/1
f 15/26/3 12/16/3 11/24/3 16/27/3
f 20/28/1 23/29/1 21/30/1 18/31/1
f 19/32/2 20/28/2 18/31/2 17/33/2
f 24/34/3 19/35/3 17/36/3 22/37/3
f 23/29/4 24/34/4 22/37/4 21/30/4
f 22/38/5 17/39/5 18/31/5 21/30/5
f 23/40/6 20/30/6 19/38/6 24/41/6
f 28/42/1 31/43/1 29/44/1 26/45/1
f 27/46/2 28/42/2 26/45/2 25/47/2
f 32/48/3 27/49/3 25/32/3 30/50/3
f 31/43/4 32/48/4 30/50/4 29/44/4
f 30/1/5 25/51/5 26/45/5 29/44/5
f 31/50/6 28/44/6 27/1/6 32/52/6
f 36/42/1 39/43/1 37/44/1 34/45/1
f 35/46/2 36/42/2 34/45/2 33/47/2
f 40/48/3 35/49/3 33/32/3 38/50/3
f 39/43/4 40/48/4 38/50/4 37/44/4
f 38/1/5 33/51/5 34/45/5 37/44/5
f 39/50/6 36/44/6 35/1/6 40/52/6
f 44/42/1 47/43/1 45/44/1 42/45/1
f 43/46/2 44/42/2 42/45/2 41/47/2
f 48/48/3 43/49/3 41/32/3 46/50/3
f 47/43/4 48/48/4 46/50/4 45/44/4
f 46/1/5 41/51/5 42/45/5 45/44/5
f 47/50/6 44/44/6 43/1/6 48/52/6
f 52/42/1 55/43/1 53/44/1 50/45/1
f 51/46/2 52/42/2 50/45/2 49/47/2
f 56/48/3 51/49/3 49/32/3 54/50/3
f 55/43/4 56/48/4 54/50/4 53/44/4
f 54/1/5 49/51/5 50/45/5 53/44/5
f 55/50/6 52/44/6 51/1/6 56/52/6
