o sheep
v -0.359375 1.234375 0.609375
v -0.359375 0.640625 0.609375
v -0.359375 1.234375 -0.609375
v -0.359375 0.640625 -0.609375
v 0.359375 0.640625 0.609375
v 0.359375 1.234375 0.609375
v 0.359375 0.640625 -0.609375
v 0.359375 1.234375 -0.609375
v -0.187500 1.375000 0.375000
v -0.187500 1.375000 0.875000
v -0.187500 1.000000 0.375000
v -0.187500 1.000000 0.875000
v 0.187500 1.375000 0.875000
v 0.187500 1.375000 0.375000
v 0.187500 1.000000 0.875000
v 0.187500 1.000000 0.375000
v -0.312500 0.750000 -0.562500
v -0.312500 0.750000 -0.312500
v -0.312500 0.000000 -0.562500
v -0.312500 0.000000 -0.312500
v -0.062500 0.750000 -0.312500
v -0.062500 0.750000 -0.562500
v -0.062500 0.000000 -0.312500
v -0.062500 0.000000 -0.562500
v 0.062500 0.750000 -0.562500
v 0.062500 0.750000 -0.312500
v 0.062500 0.000000 -0.562500
v 0.062500 0.000000 -0.312500
v 0.312500 0.750000 -0.312500
v 0.312500 0.750000 -0.562500
v 0.312500 0.000000 -0.312500
v 0.312500 0.000000 -0.562500
v -0.312500 0.750000 0.187500
v -0.312500 0.750000 0.437500
v -0.312500 -0.000000 0.187500
v -0.312500 -0.000000 0.437500
v -0.062500 0.750000 0.437500
v -0.062500 0.750000 0.187500
v -0.062500 -0.000000 0.437500
v -0.062500 -0.000000 0.187500
v 0.062500 0.750000 0.187500
v 0.062500 0.750000 0.437500
v 0.062500 -0.000000 0.187500
v 0.062500 -0.000000 0.437500
v 0.312500 0.750000 0.437500
v 0.312500 0.750000 0.187500
v 0.312500 -0.000000 0.437500
v 0.312500 -0.000000 0.187500
v -0.250000 1.125000 0.500000
v -0.250000 0.750000 0.500000
v -0.250000 1.125000 -0.500000
v -0.250000 0.750000 -0.500000
v 0.250000 0.750000 0.500000
v 0.250000 1.125000 0.500000
v 0.250000 0.750000 -0.500000
v 0.250000 1.125000 -0.500000
v -0.225000 1.412500 0.337500
v -0.225000 1.412500 0.787500
v -0.225000 0.962500 0.337500
v -0.225000 0.962500 0.787500
v 0.225000 1.412500 0.787500
v 0.225000 1.412500 0.337500
v 0.225000 0.962500 0.787500
v 0.225000 0.962500 0.337500
v -0.343750 0.781250 -0.593750
v -0.343750 0.781250 -0.281250
v -0.343750 0.343750 -0.593750
v -0.343750 0.343750 -0.281250
v -0.031250 0.781250 -0.281250
v -0.031250 0.781250 -0.593750
v -0.031250 0.343750 -0.281250
v -0.031250 0.343750 -0.593750
v 0.031250 0.781250 -0.593750
v 0.031250 0.781250 -0.281250
v 0.031250 0.343750 -0.593750
v 0.031250 0.343750 -0.281250
v 0.343750 0.781250 -0.281250
v 0.343750 0.781250 -0.593750
v 0.343750 0.343750 -0.281250
v 0.343750 0.343750 -0.593750
v -0.343750 0.781250 0.156250
v -0.343750 0.781250 0.468750
v -0.343750 0.343750 0.156250
v -0.343750 0.343750 0.468750
v -0.031250 0.781250 0.468750
v -0.031250 0.781250 0.156250
v -0.031250 0.343750 0.468750
v -0.031250 0.343750 0.156250
v 0.031250 0.781250 0.156250
v 0.031250 0.781250 0.468750
v 0.031250 0.343750 0.156250
v 0.031250 0.343750 0.468750
v 0.343750 0.781250 0.468750
v 0.343750 0.781250 0.156250
v 0.343750 0.343750 0.468750
v 0.343750 0.343750 0.156250
vn -0.0000 -1.0000 -0.0000
vn -1.0000 -0.0000 -0.0000
vn -0.0000 1.0000 -0.0000
vn 1.0000 -0.0000 -0.0000
vn -0.0000 -0.0000 1.0000
vn -0.0000 -0.0000 -1.0000
vt 0.531250 0.062500
vt 0.656250 0.062500
vt 0.656250 0.562500
vt 0.531250 0.562500
vt 0.437500 0.062500
vt 0.437500 0.562500
vt 0.750000 0.062500
vt 0.875000 0.062500
vt 0.875000 0.562500
vt 0.750000 0.562500
vt 0.656250 0.750000
vt 0.531250 0.750000
vt 0.781250 0.562500
vt 0.781250 0.750000
vt 0.125000 0.562500
vt 0.218750 0.562500
vt 0.218750 0.750000
vt 0.125000 0.750000
vt 0.000000 0.562500
vt 0.000000 0.750000
vt 0.343750 0.562500
vt 0.437500 0.750000
vt 0.343750 0.750000
vt 0.218750 1.000000
vt 0.125000 1.000000
vt 0.312500 0.750000
vt 0.312500 1.000000
vt 0.062500 0.000000
vt 0.125000 0.000000
vt 0.125000 0.375000
vt 0.062500 0.375000
vt 0.000000 0.000000
vt 0.000000 0.375000
vt 0.187500 0.000000
vt 0.250000 0.000000
vt 0.250000 0.375000
vt 0.187500 0.375000
vt 0.125000 0.500000
vt 0.062500 0.500000
vt 0.187500 0.500000
vt 0.093750 0.625000
vt 0.187500 0.625000
vt 0.187500 0.812500
vt 0.093750 0.812500
vt 0.000000 0.625000
vt 0.000000 0.812500
vt 0.281250 0.625000
vt 0.375000 0.625000
vt 0.375000 0.812500
vt 0.281250 0.812500
vt 0.187500 1.000000
vt 0.093750 1.000000
vt 0.281250 1.000000
vt 0.062500 0.187500
vt 0.125000 0.187500
vt 0.000000 0.187500
vt 0.187500 0.187500
vt 0.250000 0.187500
s 0
usemtl entity/sheep/sheep
f 12/15/5 15/16/5 13/17/5 10/18/5
f 11/19/2 12/15/2 10/18/2 9/20/2
f 16/21/6 11/6/6 9/22/6 14/23/6
f 15/16/4 16/21/4 14/23/4 13/17/4
f 14/24/3 9/25/3 10/18/3 13/17/3
f 15/26/1 12/17/1 11/24/1 16/27/1
f 20/28/5 23/29/5 21/30/5 18/31/5
f 19/32/2 20/28/2 18/31/2 17/33/2
f 24/34/6 19/35/6 17/36/6 22/37/6
f 23/29/4 24/34/4 22/37/4 21/30/4
f 22/38/3 17/39/3 18/31/3 21/30/3
f 23/37/1 20/30/1 19/38/1 24/40/1
f 28/28/5 31/29/5 29/30/5 26/31/5
f 27/32/2 28/28/2 26/31/2 25/33/2
f 32/34/6 27/35/6 25/36/6 30/37/6
f 31/29/4 32/34/4 30/37/4 29/30/4
f 30/38/3 25/39/3 26/31/3 29/30/3
f 31/37/1 28/30/1 27/38/1 32/40/1
f 36/28/5 39/29/5 37/30/5 34/31/5
f 35/32/2 36/28/2 34/31/2 33/33/2
f 40/34/6 35/35/6 33/36/6 38/37/6
f 39/29/4 40/34/4 38/37/4 37/30/4
f 38/38/3 33/39/3 34/31/3 37/30/3
f 39/37/1 36/30/1 35/38/1 40/40/1
f 44/28/5 47/29/5 45/30/5 42/31/5
f 43/32/2 44/28/2 42/31/2 41/33/2
f 48/34/6 43/35/6 41/36/6 46/37/6
f 47/29/4 48/34/4 46/37/4 45/30/4
f 46/38/3 41/39/3 42/31/3 45/30/3
f 47/37/1 44/30/1 43/38/1 48/40/1
f 52/1/1 55/2/1 53/3/1 50/4/1
f 51/5/2 52/1/2 50/4/2 49/6/2
f 56/7/3 51/8/3 49/9/3 54/10/3
f 55/2/4 56/7/4 54/10/4 53/3/4
f 54/11/5 49/12/5 50/4/5 53/3/5
f 55/13/6 52/3/6 51/11/6 56/14/6
usemtl entity/sheep/sheep_fur
f 4/1/1 7/2/1 5/3/1 2/4/1
f 3/5/2 4/1/2 2/4/2 1/6/2
f 8/7/3 3/8/3 1/9/3 6/10/3
f 7/2/4 8/7/4 6/10/4 5/3/4
f 6/11/5 1/12/5 2/4/5 5/3/5
f 7/13/6 4/3/6 3/11/6 8/14/6
f 60/41/5 63/42/5 61/43/5 58/44/5
f 59/45/2 60/41/2 58/44/2 57/46/2
f 64/47/6 59/48/6 57/49/6 62/50/6
f 63/42/4 64/47/4 62/50/4 61/43/4
f 62/51/3 57/52/3 58/44/3 61/43/3
f 63/50/1 60/43/1 59/51/1 64/53/1
f 68/54/5 71/55/5 69/30/5 66/31/5
f 67/56/2 68/54/2 66/31/2 65/33/2
f 72/57/6 67/58/6 65/36/6 70/37/6
f 71/55/4 72/57/4 70/37/4 69/30/4
f 70/38/3 65/39/3 66/31/3 69/30/3
f 71/37/1 68/30/1 67/38/1 72/40/1
f 76/54/5 79/55/5 77/30/5 74/31/5
f 75/56/2 76/54/2 74/31/2 73/33/2
f 80/57/6 75/58/6 73/36/6 78/37/6
f 79/55/4 80/57/4 78/37/4 77/30/4
f 78/38/3 73/39/3 74/31/3 77/30/3
f 79/37/1 76/30/1 75/38/1 80/40/1
f 84/54/5 87/55/5 85/30/5 82/31/5
f 83/56/2 84/54/2 82/31/2 81/33/2
f 88/57/6 83/58/6 81/36/6 86/37/6
f 87/55/4 88/57/4 86/37/4 85/30/4
f 86/38/3 81/39/3 82/31/3 85/30/3
f 87/37/1 84/30/1 83/38/1 88/40/1
f 92/54/5 95/55/5 93/30/5 90/31/5
f 91/56/2 92/54/2 90/31/2 89/33/2
f 96/57/6 91/58/6 89/36/6 94/37/6
f 95/55/4 96/57/4 94/37/4 93/30/4
f 94/38/3 89/39/3 90/31/3 93/30/3
f 95/37/1 92/30/1 91/38/1 96/40/1
