<svg xmlns="http://www.w3.org/2000/svg" xmlns:xlink="http://www.w3.org/1999/xlink" viewBox="0 0 45.388 39.375"><defs><linearGradient id="c"><stop offset="0" stop-color="#fff" stop-opacity="0"/><stop offset=".232" stop-color="#fff"/><stop offset="1" stop-color="#fff"/></linearGradient><linearGradient id="b"><stop offset="0" stop-color="#699ad7"/><stop offset=".243" stop-color="#7eb1dd"/><stop offset="1" stop-color="#7ebae4"/></linearGradient><linearGradient id="a"><stop offset="0" stop-color="#415e9a"/><stop offset=".232" stop-color="#4a6baf"/><stop offset="1" stop-color="#5277c3"/></linearGradient><linearGradient y2="880.377" x2="-414.387" y1="782.336" x1="-584.199" gradientTransform="translate(864.696 -1491.34)" gradientUnits="userSpaceOnUse" id="e" xlink:href="#c"/><linearGradient y2="460.518" x2="389.576" y1="351.411" x1="200.597" gradientTransform="translate(210.82 -765.276)" gradientUnits="userSpaceOnUse" id="d" xlink:href="#c"/></defs><g transform="matrix(.09049 0 0 .09049 -14.16 84.455)" stroke-width="11.051"><g transform="rotate(-60 226.358 -449.372)"><path d="M449.719-420.513l122.197 211.675-56.157.527-32.624-56.87-32.857 56.566-27.902-.011-14.29-24.69 46.81-80.49-33.23-57.826z" id="f" fill="url(#d)" fill-rule="evenodd" stroke-width="33.154" stroke-linejoin="round"/></g><path style="isolation:auto;mix-blend-mode:normal" d="M309.549-710.388l122.197 211.675-56.157.527-32.624-56.87-32.856 56.566-27.903-.011-14.29-24.69 46.81-80.49-33.23-57.826z" id="g" color="#000" overflow="visible" fill="url(#e)" fill-rule="evenodd" stroke-width="33.154" stroke-linejoin="round"/><use height="100%" width="100%" transform="rotate(60 728.236 -692.24)" xlink:href="#f"/><use height="100%" width="100%" transform="rotate(180 477.504 -570.819)" xlink:href="#f"/><use height="100%" width="100%" transform="rotate(120 407.34 -716.084)" xlink:href="#g"/><use height="100%" width="100%" transform="rotate(-120 407.288 -715.87)" xlink:href="#g"/></g></svg>
