<svg xmlns="http://www.w3.org/2000/svg" xmlns:xlink="http://www.w3.org/1999/xlink" viewBox="0 0 100 100" fill="#ffffff"><g><g><g><g><path d="M69.902,72.704L58.967,61.769c-2.997,1.961-6.579,3.111-10.444,3.111c-10.539,0-19.062-8.542-19.062-19.081 c0-10.519,8.522-19.061,19.062-19.061c10.521,0,19.06,8.542,19.06,19.061c0,3.679-1.036,7.107-2.828,10.011l11.013,11.011 c0.583,0.567,0.094,1.981-1.076,3.148l-1.64,1.644C71.882,72.78,70.468,73.269,69.902,72.704z M61.249,45.799 c0-7.033-5.695-12.727-12.727-12.727c-7.033,0-12.745,5.694-12.745,12.727c0,7.033,5.712,12.745,12.745,12.745 C55.554,58.544,61.249,52.833,61.249,45.799z"></path></g></g></g></g></svg>
