<?xml version="1.0" encoding="UTF-8" standalone="no"?>
<svg width="256" height="256" viewBox="0 0 256 256" version="1.1" xmlns="http://www.w3.org/2000/svg" xmlns:svg="http://www.w3.org/2000/svg">
  <defs>
    <filter id="shadow" x="-0.6" y="-0.3" width="2.2" height="1.6">
      <feFlood result="flood" flood-opacity="0.5" flood-color="#000000" />
      <feGaussianBlur result="blur" in="SourceGraphic" stdDeviation="8" />
      <feComposite result="comp1" operator="in" in="flood" in2="blur" />
      <feComposite operator="over" in="SourceGraphic" in2="comp1" />
    </filter>
    <clipPath id="frame">
      <rect width="254" height="254" x="1" y="1" ry="31" rx="31" />
    </clipPath>
  </defs>
  <g clip-path="url(#frame)">
    <rect x="0" y="0" width="32" height="256" fill="#000000" />
    <rect x="32" y="0" width="32" height="256" fill="#262626" />
    <rect x="32" y="192" width="32" height="64" fill="#ffffff" />
    <rect x="96" y="0" width="32" height="256" fill="#262626" />
    <rect x="64" y="0" width="32" height="256" fill="#000000" />
    <rect x="128" y="0" width="32" height="256" fill="#000000" />
    <rect x="192" y="0" width="32" height="256" fill="#000000" />
    <rect x="96" y="192" width="32" height="64" fill="#ffffff" />
    <rect x="160" y="0" width="32" height="256" fill="#262626" />
    <rect x="160" y="192" width="32" height="64" fill="#ffffff" />
    <rect x="224" y="0" width="32" height="256" fill="#262626" />
    <rect x="224" y="192" width="32" height="64" fill="#ffffff" />
    <line x1="32" y1="0" x2="32" y2="192" stroke="#545454" stroke-width="2" />
    <line x1="64" y1="0" x2="64" y2="192" stroke="#545454" stroke-width="2" />
    <line x1="96" y1="0" x2="96" y2="192" stroke="#545454" stroke-width="2" />
    <line x1="128" y1="0" x2="128" y2="192" stroke="#545454" stroke-width="2" />
    <line x1="160" y1="0" x2="160" y2="192" stroke="#545454" stroke-width="2" />
    <line x1="192" y1="0" x2="192" y2="192" stroke="#545454" stroke-width="2" />
    <line x1="224" y1="0" x2="224" y2="192" stroke="#545454" stroke-width="2" />
    <rect x="0" y="192" width="32" height="64" fill="#ff6974" filter="url(#shadow)" />
    <rect x="64" y="192" width="32" height="64" fill="#6b7eff" filter="url(#shadow)" />
    <rect x="128" y="192" width="32" height="64" fill="#6b7eff" filter="url(#shadow)" />
    <rect x="192" y="192" width="32" height="64" fill="#6b7eff" filter="url(#shadow)" />
  </g>
  <rect stroke-width="4" width="252" height="252" x="2" y="2" ry="30" rx="30" fill="none" stroke="#4b4b4b" />
</svg>
