<svg xmlns="http://www.w3.org/2000/svg" xmlns:v="https://svgstorm.com"
viewBox = "0 0 848 848"
width="848"
height="848">
<g fill="None" fill-opacity="0.0" stroke="#000000" stroke-opacity="0.00" stroke-width="0.3"><path d="
M 0.00 848.00 
L 848.00 848.00
L 848.00 0.00
L 0.00 0.00
L 0.00 848.00
M 245.00 76.00 
C 257.92 79.01 264.56 96.28 275.75 104.25 C 286.94 112.22 294.26 125.09 305.75 134.25 C 317.24 143.41 322.92 155.97 337.70 162.31 C 352.47 168.64 375.27 167.21 393.00 167.00 C 410.73 166.79 435.22 167.37 453.00 167.00 C 470.78 166.63 494.28 169.14 509.68 163.68 C 525.08 158.22 530.64 145.88 542.25 136.25 C 553.86 126.62 560.80 115.48 572.25 106.25 C 583.70 97.01 589.98 83.87 603.08 77.08 C 616.17 70.28 631.89 88.41 639.75 98.25 C 647.61 108.08 665.99 117.39 666.99 131.01 C 667.99 144.62 650.15 155.52 641.25 165.25 C 632.35 174.98 621.29 185.90 611.25 195.25 C 601.20 204.60 593.08 216.19 581.75 224.75 C 570.42 233.31 565.16 249.37 549.98 252.98 C 534.79 256.58 526.39 236.53 511.92 231.08 C 497.46 225.62 474.75 225.51 457.00 226.00 C 439.25 226.49 415.02 226.18 397.00 226.00 C 378.98 225.82 356.59 225.45 340.77 229.77 C 324.96 234.09 319.56 252.52 304.00 253.00 C 288.44 253.48 280.43 236.22 269.75 227.25 C 259.07 218.28 249.66 207.00 239.75 197.25 C 229.84 187.49 218.83 177.63 209.75 167.25 C 200.67 156.87 184.57 148.20 183.00 134.00 C 181.43 119.79 199.17 109.02 208.25 99.25 C 217.33 89.48 229.83 72.47 245.00 76.00
M 131.00 181.00 
C 146.40 181.86 155.25 203.28 167.75 212.25 C 180.25 221.22 188.90 236.03 201.75 246.25 C 214.60 256.47 221.54 269.51 235.75 280.25 C 249.96 290.98 256.80 308.64 239.25 321.25 C 221.70 333.86 224.54 354.31 224.00 374.00 C 223.46 393.69 224.45 422.13 224.00 442.00 C 223.55 461.87 223.39 489.77 226.93 507.07 C 230.46 524.38 256.26 532.95 250.22 550.22 C 244.18 567.49 227.88 571.92 217.75 585.75 C 207.62 599.58 194.40 606.08 183.75 619.75 C 173.10 633.42 160.47 638.69 149.75 653.75 C 139.04 668.82 118.36 668.00 108.25 651.75 C 98.13 635.51 83.40 633.80 75.08 616.92 C 66.76 600.05 88.84 588.90 98.75 576.75 C 108.66 564.61 122.67 555.88 132.75 542.75 C 142.84 529.62 158.15 522.65 162.78 504.78 C 167.40 486.90 163.89 459.01 165.00 439.00 C 166.11 418.99 163.53 390.82 165.00 371.00 C 166.47 351.18 161.59 332.89 147.75 320.25 C 133.91 307.61 127.05 298.43 113.75 286.25 C 100.45 274.07 93.82 264.53 79.75 252.25 C 65.68 239.96 80.07 219.40 93.25 211.25 C 106.42 203.09 114.22 180.07 131.00 181.00
M 723.00 183.00 
C 733.12 185.51 738.47 199.08 747.25 205.75 C 756.03 212.43 761.96 220.59 770.75 229.25 C 779.54 237.90 769.49 253.10 760.75 259.75 C 752.01 266.41 745.24 276.18 736.75 283.75 C 728.27 291.32 721.86 298.95 713.25 307.25 C 704.64 315.54 698.25 321.38 690.70 331.70 C 683.15 342.01 682.18 356.79 683.00 371.00 C 683.82 385.21 682.57 404.36 683.00 419.00 C 683.43 433.64 682.69 451.73 683.00 466.00 C 683.31 480.27 681.43 497.90 685.98 510.02 C 690.53 522.15 699.78 527.37 707.75 536.25 C 715.73 545.13 723.51 551.32 731.25 559.75 C 738.99 568.18 747.31 574.86 754.75 583.25 C 762.20 591.63 774.76 598.78 774.00 611.00 C 773.23 623.22 760.92 629.13 753.25 638.25 C 745.58 647.36 738.13 652.07 729.75 661.75 C 721.38 671.44 705.84 665.60 698.75 656.25 C 691.66 646.90 682.93 641.32 675.25 632.75 C 667.57 624.19 659.33 617.00 651.25 608.75 C 643.16 600.51 636.37 593.38 627.75 585.25 C 619.13 577.12 613.93 569.97 604.25 561.75 C 594.57 553.54 593.95 538.89 604.25 530.25 C 614.55 521.61 620.03 514.58 622.33 501.33 C 624.62 488.07 622.34 469.37 623.00 455.00 C 623.66 440.63 622.56 422.42 623.00 408.00 C 623.44 393.58 622.48 373.56 623.00 360.00 C 623.52 346.44 619.39 333.79 610.75 325.25 C 602.11 316.72 591.40 306.29 598.31 295.31 C 605.21 284.32 613.32 280.28 621.25 271.25 C 629.18 262.22 637.28 255.72 645.25 247.25 C 653.21 238.77 660.71 232.01 668.75 223.75 C 676.80 215.49 683.99 208.58 692.25 200.25 C 700.51 191.92 709.46 179.65 723.00 183.00
M 394.00 317.00 
C 394.93 330.03 392.76 339.63 394.00 353.00 C 395.24 366.37 391.69 375.54 394.00 390.00 C 396.31 404.46 383.27 404.93 370.00 403.00
C 370.00 396.67 370.00 390.33 370.00 384.00
C 351.33 384.00 332.67 384.00 314.00 384.00
C 314.00 390.33 314.00 396.67 314.00 403.00
C 306.00 403.00 298.00 403.00 290.00 403.00
C 290.68 388.26 289.09 370.43 290.00 356.00 C 290.91 341.57 303.68 341.21 311.25 329.25 C 318.81 317.29 331.62 315.54 346.00 317.00 C 360.38 318.46 379.21 315.91 394.00 317.00
M 532.00 403.00 
C 529.05 390.71 536.94 368.38 529.75 358.25 C 522.57 348.12 513.02 339.00 501.00 340.00
C 500.85 349.73 501.20 359.25 501.00 369.00 C 500.80 378.75 501.39 388.17 501.00 398.00 C 500.61 407.83 483.85 400.97 477.00 403.00
C 476.05 393.57 478.27 382.24 477.00 373.00 C 475.73 363.76 479.44 351.54 477.00 343.00 C 474.56 334.46 455.41 343.16 449.00 340.00
C 449.00 361.00 449.00 382.00 449.00 403.00
C 441.00 403.00 433.00 403.00 425.00 403.00
C 425.00 374.33 425.00 345.67 425.00 317.00
C 435.93 317.40 448.21 316.47 459.00 317.00 C 469.79 317.53 482.70 315.98 493.00 317.00 C 503.30 318.02 517.52 313.62 525.25 319.75 C 532.97 325.89 535.13 329.81 542.25 336.75 C 549.37 343.69 555.86 346.70 556.00 358.00 C 556.14 369.30 554.40 379.03 556.00 392.00 C 557.60 404.97 543.87 404.39 532.00 403.00
M 399.00 500.00 
C 409.01 508.90 410.75 521.17 402.25 532.25 C 393.74 543.32 383.46 545.61 369.00 544.00 C 354.54 542.39 337.68 545.21 323.00 544.00
C 323.00 536.00 323.00 528.00 323.00 520.00
C 341.33 520.00 359.67 520.00 378.00 520.00
C 380.41 509.36 368.19 513.58 361.00 513.00 C 353.81 512.42 344.39 513.43 337.00 513.00
C 337.00 505.00 337.00 497.00 337.00 489.00
C 350.67 489.00 364.33 489.00 378.00 489.00
C 380.16 476.02 364.38 481.95 355.00 481.00 C 345.62 480.05 332.70 481.71 323.00 481.00
C 323.00 473.00 323.00 465.00 323.00 457.00
C 337.56 455.57 353.58 458.91 368.00 457.00 C 382.42 455.09 392.57 458.16 401.25 468.75 C 409.93 479.34 410.34 491.86 399.00 500.00
M 463.00 513.00 
C 462.39 525.27 479.15 518.80 489.00 520.00 C 498.85 521.20 512.78 519.10 523.00 520.00
C 523.00 528.00 523.00 536.00 523.00 544.00
C 495.00 544.00 467.00 544.00 439.00 544.00
C 438.68 525.38 435.09 505.90 450.75 493.75 C 466.41 481.61 488.46 498.25 501.00 481.00
C 480.33 481.00 459.67 481.00 439.00 481.00
C 439.00 473.00 439.00 465.00 439.00 457.00
C 453.92 455.88 474.66 458.49 489.00 457.00 C 503.34 455.51 515.33 461.24 522.25 473.75 C 529.17 486.26 521.09 502.57 509.75 509.75 C 498.42 516.93 476.73 511.13 463.00 513.00
M 305.00 595.00 
C 321.28 598.06 325.06 620.55 344.02 620.98 C 362.99 621.40 388.20 622.57 408.00 622.00 C 427.80 621.43 453.90 622.46 473.00 622.00 C 492.10 621.54 511.64 624.17 523.75 607.75 C 535.87 591.33 552.03 594.03 563.25 607.75 C 574.47 621.47 584.69 627.86 595.75 640.25 C 606.81 652.64 617.20 660.66 628.25 672.75 C 639.29 684.85 649.58 692.61 660.75 705.25 C 671.93 717.89 655.13 736.62 643.75 744.75 C 632.38 752.88 622.59 774.36 607.00 773.00 C 591.41 771.64 583.38 753.16 571.25 743.75 C 559.11 734.35 550.69 720.88 538.25 710.75 C 525.81 700.62 518.91 685.65 500.98 683.02 C 483.04 680.40 456.39 682.92 437.00 682.00 C 417.61 681.08 391.04 683.29 372.00 682.00 C 352.96 680.71 333.51 682.64 321.25 696.25 C 308.98 709.86 300.19 715.49 288.75 728.75 C 277.31 742.01 267.27 746.72 256.25 761.25 C 245.23 775.78 226.89 775.07 216.25 759.75 C 205.61 744.44 194.84 742.07 183.75 727.25 C 172.66 712.42 190.80 697.74 201.75 687.75 C 212.71 677.77 223.18 665.10 234.25 655.25 C 245.32 645.39 255.40 631.82 266.75 622.75 C 278.10 613.69 288.73 591.94 305.00 595.00 Z"/>
</g>
<g fill="None" fill-opacity="0.0" stroke="#F8F9FB" stroke-opacity="0.98" stroke-width="0.3"><path d="
M 245.00 76.00 
C 229.83 72.47 217.33 89.48 208.25 99.25 C 199.17 109.02 181.43 119.79 183.00 134.00 C 184.57 148.20 200.67 156.87 209.75 167.25 C 218.83 177.63 229.84 187.49 239.75 197.25 C 249.66 207.00 259.07 218.28 269.75 227.25 C 280.43 236.22 288.44 253.48 304.00 253.00 C 319.56 252.52 324.96 234.09 340.77 229.77 C 356.59 225.45 378.98 225.82 397.00 226.00 C 415.02 226.18 439.25 226.49 457.00 226.00 C 474.75 225.51 497.46 225.62 511.92 231.08 C 526.39 236.53 534.79 256.58 549.98 252.98 C 565.16 249.37 570.42 233.31 581.75 224.75 C 593.08 216.19 601.20 204.60 611.25 195.25 C 621.29 185.90 632.35 174.98 641.25 165.25 C 650.15 155.52 667.99 144.62 666.99 131.01 C 665.99 117.39 647.61 108.08 639.75 98.25 C 631.89 88.41 616.17 70.28 603.08 77.08 C 589.98 83.87 583.70 97.01 572.25 106.25 C 560.80 115.48 553.86 126.62 542.25 136.25 C 530.64 145.88 525.08 158.22 509.68 163.68 C 494.28 169.14 470.78 166.63 453.00 167.00 C 435.22 167.37 410.73 166.79 393.00 167.00 C 375.27 167.21 352.47 168.64 337.70 162.31 C 322.92 155.97 317.24 143.41 305.75 134.25 C 294.26 125.09 286.94 112.22 275.75 104.25 C 264.56 96.28 257.92 79.01 245.00 76.00 Z"/>
</g>
<g fill="None" fill-opacity="0.0" stroke="#F8F9FB" stroke-opacity="0.98" stroke-width="0.3"><path d="
M 131.00 181.00 
C 114.22 180.07 106.42 203.09 93.25 211.25 C 80.07 219.40 65.68 239.96 79.75 252.25 C 93.82 264.53 100.45 274.07 113.75 286.25 C 127.05 298.43 133.91 307.61 147.75 320.25 C 161.59 332.89 166.47 351.18 165.00 371.00 C 163.53 390.82 166.11 418.99 165.00 439.00 C 163.89 459.01 167.40 486.90 162.78 504.78 C 158.15 522.65 142.84 529.62 132.75 542.75 C 122.67 555.88 108.66 564.61 98.75 576.75 C 88.84 588.90 66.76 600.05 75.08 616.92 C 83.40 633.80 98.13 635.51 108.25 651.75 C 118.36 668.00 139.04 668.82 149.75 653.75 C 160.47 638.69 173.10 633.42 183.75 619.75 C 194.40 606.08 207.62 599.58 217.75 585.75 C 227.88 571.92 244.18 567.49 250.22 550.22 C 256.26 532.95 230.46 524.38 226.93 507.07 C 223.39 489.77 223.55 461.87 224.00 442.00 C 224.45 422.13 223.46 393.69 224.00 374.00 C 224.54 354.31 221.70 333.86 239.25 321.25 C 256.80 308.64 249.96 290.98 235.75 280.25 C 221.54 269.51 214.60 256.47 201.75 246.25 C 188.90 236.03 180.25 221.22 167.75 212.25 C 155.25 203.28 146.40 181.86 131.00 181.00 Z"/>
</g>
<g fill="None" fill-opacity="0.0" stroke="#F8F9FB" stroke-opacity="0.98" stroke-width="0.3"><path d="
M 723.00 183.00 
C 709.46 179.65 700.51 191.92 692.25 200.25 C 683.99 208.58 676.80 215.49 668.75 223.75 C 660.71 232.01 653.21 238.77 645.25 247.25 C 637.28 255.72 629.18 262.22 621.25 271.25 C 613.32 280.28 605.21 284.32 598.31 295.31 C 591.40 306.29 602.11 316.72 610.75 325.25 C 619.39 333.79 623.52 346.44 623.00 360.00 C 622.48 373.56 623.44 393.58 623.00 408.00 C 622.56 422.42 623.66 440.63 623.00 455.00 C 622.34 469.37 624.62 488.07 622.33 501.33 C 620.03 514.58 614.55 521.61 604.25 530.25 C 593.95 538.89 594.57 553.54 604.25 561.75 C 613.93 569.97 619.13 577.12 627.75 585.25 C 636.37 593.38 643.16 600.51 651.25 608.75 C 659.33 617.00 667.57 624.19 675.25 632.75 C 682.93 641.32 691.66 646.90 698.75 656.25 C 705.84 665.60 721.38 671.44 729.75 661.75 C 738.13 652.07 745.58 647.36 753.25 638.25 C 760.92 629.13 773.23 623.22 774.00 611.00 C 774.76 598.78 762.20 591.63 754.75 583.25 C 747.31 574.86 738.99 568.18 731.25 559.75 C 723.51 551.32 715.73 545.13 707.75 536.25 C 699.78 527.37 690.53 522.15 685.98 510.02 C 681.43 497.90 683.31 480.27 683.00 466.00 C 682.69 451.73 683.43 433.64 683.00 419.00 C 682.57 404.36 683.82 385.21 683.00 371.00 C 682.18 356.79 683.15 342.01 690.70 331.70 C 698.25 321.38 704.64 315.54 713.25 307.25 C 721.86 298.95 728.27 291.32 736.75 283.75 C 745.24 276.18 752.01 266.41 760.75 259.75 C 769.49 253.10 779.54 237.90 770.75 229.25 C 761.96 220.59 756.03 212.43 747.25 205.75 C 738.47 199.08 733.12 185.51 723.00 183.00 Z"/>
</g>
<g fill="None" fill-opacity="0.0" stroke="#F8F9FB" stroke-opacity="0.96" stroke-width="0.3"><path d="
M 394.00 317.00 
C 379.21 315.91 360.38 318.46 346.00 317.00 C 331.62 315.54 318.81 317.29 311.25 329.25 C 303.68 341.21 290.91 341.57 290.00 356.00 C 289.09 370.43 290.68 388.26 290.00 403.00
C 298.00 403.00 306.00 403.00 314.00 403.00
C 314.00 396.67 314.00 390.33 314.00 384.00
C 332.67 384.00 351.33 384.00 370.00 384.00
C 370.00 390.33 370.00 396.67 370.00 403.00
C 383.27 404.93 396.31 404.46 394.00 390.00 C 391.69 375.54 395.24 366.37 394.00 353.00 C 392.76 339.63 394.93 330.03 394.00 317.00
M 370.00 360.00 
C 351.67 360.00 333.33 360.00 315.00 360.00
C 320.14 352.34 322.28 351.00 329.75 343.75 C 337.22 336.50 346.74 342.52 358.00 340.00 C 369.26 337.48 373.10 348.49 370.00 360.00 Z"/>
</g>
<g fill="None" fill-opacity="0.0" stroke="#F8F9FB" stroke-opacity="0.95" stroke-width="0.3"><path d="
M 532.00 403.00 
C 543.87 404.39 557.60 404.97 556.00 392.00 C 554.40 379.03 556.14 369.30 556.00 358.00 C 555.86 346.70 549.37 343.69 542.25 336.75 C 535.13 329.81 532.97 325.89 525.25 319.75 C 517.52 313.62 503.30 318.02 493.00 317.00 C 482.70 315.98 469.79 317.53 459.00 317.00 C 448.21 316.47 435.93 317.40 425.00 317.00
C 425.00 345.67 425.00 374.33 425.00 403.00
C 433.00 403.00 441.00 403.00 449.00 403.00
C 449.00 382.00 449.00 361.00 449.00 340.00
C 455.41 343.16 474.56 334.46 477.00 343.00 C 479.44 351.54 475.73 363.76 477.00 373.00 C 478.27 382.24 476.05 393.57 477.00 403.00
C 483.85 400.97 500.61 407.83 501.00 398.00 C 501.39 388.17 500.80 378.75 501.00 369.00 C 501.20 359.25 500.85 349.73 501.00 340.00
C 513.02 339.00 522.57 348.12 529.75 358.25 C 536.94 368.38 529.05 390.71 532.00 403.00 Z"/>
</g>
<g fill="None" fill-opacity="0.0" stroke="#000000" stroke-opacity="0.00" stroke-width="0.3"><path d="
M 370.00 360.00 
C 373.10 348.49 369.26 337.48 358.00 340.00 C 346.74 342.52 337.22 336.50 329.75 343.75 C 322.28 351.00 320.14 352.34 315.00 360.00
C 333.33 360.00 351.67 360.00 370.00 360.00 Z"/>
</g>
<g fill="None" fill-opacity="0.0" stroke="#F8F9FB" stroke-opacity="0.95" stroke-width="0.3"><path d="
M 399.00 500.00 
C 410.34 491.86 409.93 479.34 401.25 468.75 C 392.57 458.16 382.42 455.09 368.00 457.00 C 353.58 458.91 337.56 455.57 323.00 457.00
C 323.00 465.00 323.00 473.00 323.00 481.00
C 332.70 481.71 345.62 480.05 355.00 481.00 C 364.38 481.95 380.16 476.02 378.00 489.00
C 364.33 489.00 350.67 489.00 337.00 489.00
C 337.00 497.00 337.00 505.00 337.00 513.00
C 344.39 513.43 353.81 512.42 361.00 513.00 C 368.19 513.58 380.41 509.36 378.00 520.00
C 359.67 520.00 341.33 520.00 323.00 520.00
C 323.00 528.00 323.00 536.00 323.00 544.00
C 337.68 545.21 354.54 542.39 369.00 544.00 C 383.46 545.61 393.74 543.32 402.25 532.25 C 410.75 521.17 409.01 508.90 399.00 500.00 Z"/>
</g>
<g fill="None" fill-opacity="0.0" stroke="#F8F9FB" stroke-opacity="0.95" stroke-width="0.3"><path d="
M 463.00 513.00 
C 476.73 511.13 498.42 516.93 509.75 509.75 C 521.09 502.57 529.17 486.26 522.25 473.75 C 515.33 461.24 503.34 455.51 489.00 457.00 C 474.66 458.49 453.92 455.88 439.00 457.00
C 439.00 465.00 439.00 473.00 439.00 481.00
C 459.67 481.00 480.33 481.00 501.00 481.00
C 488.46 498.25 466.41 481.61 450.75 493.75 C 435.09 505.90 438.68 525.38 439.00 544.00
C 467.00 544.00 495.00 544.00 523.00 544.00
C 523.00 536.00 523.00 528.00 523.00 520.00
C 512.78 519.10 498.85 521.20 489.00 520.00 C 479.15 518.80 462.39 525.27 463.00 513.00 Z"/>
</g>
<g fill="None" fill-opacity="0.0" stroke="#F8F9FB" stroke-opacity="0.98" stroke-width="0.3"><path d="
M 305.00 595.00 
C 288.73 591.94 278.10 613.69 266.75 622.75 C 255.40 631.82 245.32 645.39 234.25 655.25 C 223.18 665.10 212.71 677.77 201.75 687.75 C 190.80 697.74 172.66 712.42 183.75 727.25 C 194.84 742.07 205.61 744.44 216.25 759.75 C 226.89 775.07 245.23 775.78 256.25 761.25 C 267.27 746.72 277.31 742.01 288.75 728.75 C 300.19 715.49 308.98 709.86 321.25 696.25 C 333.51 682.64 352.96 680.71 372.00 682.00 C 391.04 683.29 417.61 681.08 437.00 682.00 C 456.39 682.92 483.04 680.40 500.98 683.02 C 518.91 685.65 525.81 700.62 538.25 710.75 C 550.69 720.88 559.11 734.35 571.25 743.75 C 583.38 753.16 591.41 771.64 607.00 773.00 C 622.59 774.36 632.38 752.88 643.75 744.75 C 655.13 736.62 671.93 717.89 660.75 705.25 C 649.58 692.61 639.29 684.85 628.25 672.75 C 617.20 660.66 606.81 652.64 595.75 640.25 C 584.69 627.86 574.47 621.47 563.25 607.75 C 552.03 594.03 535.87 591.33 523.75 607.75 C 511.64 624.17 492.10 621.54 473.00 622.00 C 453.90 622.46 427.80 621.43 408.00 622.00 C 388.20 622.57 362.99 621.40 344.02 620.98 C 325.06 620.55 321.28 598.06 305.00 595.00 Z"/>
</g>
<g fill="#000000" fill-opacity="0.00" stroke="None">
<path d="
M 0.00 848.00 
L 848.00 848.00
L 848.00 0.00
L 0.00 0.00
L 0.00 848.00
M 245.00 76.00 
C 257.92 79.01 264.56 96.28 275.75 104.25 C 286.94 112.22 294.26 125.09 305.75 134.25 C 317.24 143.41 322.92 155.97 337.70 162.31 C 352.47 168.64 375.27 167.21 393.00 167.00 C 410.73 166.79 435.22 167.37 453.00 167.00 C 470.78 166.63 494.28 169.14 509.68 163.68 C 525.08 158.22 530.64 145.88 542.25 136.25 C 553.86 126.62 560.80 115.48 572.25 106.25 C 583.70 97.01 589.98 83.87 603.08 77.08 C 616.17 70.28 631.89 88.41 639.75 98.25 C 647.61 108.08 665.99 117.39 666.99 131.01 C 667.99 144.62 650.15 155.52 641.25 165.25 C 632.35 174.98 621.29 185.90 611.25 195.25 C 601.20 204.60 593.08 216.19 581.75 224.75 C 570.42 233.31 565.16 249.37 549.98 252.98 C 534.79 256.58 526.39 236.53 511.92 231.08 C 497.46 225.62 474.75 225.51 457.00 226.00 C 439.25 226.49 415.02 226.18 397.00 226.00 C 378.98 225.82 356.59 225.45 340.77 229.77 C 324.96 234.09 319.56 252.52 304.00 253.00 C 288.44 253.48 280.43 236.22 269.75 227.25 C 259.07 218.28 249.66 207.00 239.75 197.25 C 229.84 187.49 218.83 177.63 209.75 167.25 C 200.67 156.87 184.57 148.20 183.00 134.00 C 181.43 119.79 199.17 109.02 208.25 99.25 C 217.33 89.48 229.83 72.47 245.00 76.00
M 131.00 181.00 
C 146.40 181.86 155.25 203.28 167.75 212.25 C 180.25 221.22 188.90 236.03 201.75 246.25 C 214.60 256.47 221.54 269.51 235.75 280.25 C 249.96 290.98 256.80 308.64 239.25 321.25 C 221.70 333.86 224.54 354.31 224.00 374.00 C 223.46 393.69 224.45 422.13 224.00 442.00 C 223.55 461.87 223.39 489.77 226.93 507.07 C 230.46 524.38 256.26 532.95 250.22 550.22 C 244.18 567.49 227.88 571.92 217.75 585.75 C 207.62 599.58 194.40 606.08 183.75 619.75 C 173.10 633.42 160.47 638.69 149.75 653.75 C 139.04 668.82 118.36 668.00 108.25 651.75 C 98.13 635.51 83.40 633.80 75.08 616.92 C 66.76 600.05 88.84 588.90 98.75 576.75 C 108.66 564.61 122.67 555.88 132.75 542.75 C 142.84 529.62 158.15 522.65 162.78 504.78 C 167.40 486.90 163.89 459.01 165.00 439.00 C 166.11 418.99 163.53 390.82 165.00 371.00 C 166.47 351.18 161.59 332.89 147.75 320.25 C 133.91 307.61 127.05 298.43 113.75 286.25 C 100.45 274.07 93.82 264.53 79.75 252.25 C 65.68 239.96 80.07 219.40 93.25 211.25 C 106.42 203.09 114.22 180.07 131.00 181.00
M 723.00 183.00 
C 733.12 185.51 738.47 199.08 747.25 205.75 C 756.03 212.43 761.96 220.59 770.75 229.25 C 779.54 237.90 769.49 253.10 760.75 259.75 C 752.01 266.41 745.24 276.18 736.75 283.75 C 728.27 291.32 721.86 298.95 713.25 307.25 C 704.64 315.54 698.25 321.38 690.70 331.70 C 683.15 342.01 682.18 356.79 683.00 371.00 C 683.82 385.21 682.57 404.36 683.00 419.00 C 683.43 433.64 682.69 451.73 683.00 466.00 C 683.31 480.27 681.43 497.90 685.98 510.02 C 690.53 522.15 699.78 527.37 707.75 536.25 C 715.73 545.13 723.51 551.32 731.25 559.75 C 738.99 568.18 747.31 574.86 754.75 583.25 C 762.20 591.63 774.76 598.78 774.00 611.00 C 773.23 623.22 760.92 629.13 753.25 638.25 C 745.58 647.36 738.13 652.07 729.75 661.75 C 721.38 671.44 705.84 665.60 698.75 656.25 C 691.66 646.90 682.93 641.32 675.25 632.75 C 667.57 624.19 659.33 617.00 651.25 608.75 C 643.16 600.51 636.37 593.38 627.75 585.25 C 619.13 577.12 613.93 569.97 604.25 561.75 C 594.57 553.54 593.95 538.89 604.25 530.25 C 614.55 521.61 620.03 514.58 622.33 501.33 C 624.62 488.07 622.34 469.37 623.00 455.00 C 623.66 440.63 622.56 422.42 623.00 408.00 C 623.44 393.58 622.48 373.56 623.00 360.00 C 623.52 346.44 619.39 333.79 610.75 325.25 C 602.11 316.72 591.40 306.29 598.31 295.31 C 605.21 284.32 613.32 280.28 621.25 271.25 C 629.18 262.22 637.28 255.72 645.25 247.25 C 653.21 238.77 660.71 232.01 668.75 223.75 C 676.80 215.49 683.99 208.58 692.25 200.25 C 700.51 191.92 709.46 179.65 723.00 183.00
M 394.00 317.00 
C 394.93 330.03 392.76 339.63 394.00 353.00 C 395.24 366.37 391.69 375.54 394.00 390.00 C 396.31 404.46 383.27 404.93 370.00 403.00
C 370.00 396.67 370.00 390.33 370.00 384.00
C 351.33 384.00 332.67 384.00 314.00 384.00
C 314.00 390.33 314.00 396.67 314.00 403.00
C 306.00 403.00 298.00 403.00 290.00 403.00
C 290.68 388.26 289.09 370.43 290.00 356.00 C 290.91 341.57 303.68 341.21 311.25 329.25 C 318.81 317.29 331.62 315.54 346.00 317.00 C 360.38 318.46 379.21 315.91 394.00 317.00
M 532.00 403.00 
C 529.05 390.71 536.94 368.38 529.75 358.25 C 522.57 348.12 513.02 339.00 501.00 340.00
C 500.85 349.73 501.20 359.25 501.00 369.00 C 500.80 378.75 501.39 388.17 501.00 398.00 C 500.61 407.83 483.85 400.97 477.00 403.00
C 476.05 393.57 478.27 382.24 477.00 373.00 C 475.73 363.76 479.44 351.54 477.00 343.00 C 474.56 334.46 455.41 343.16 449.00 340.00
C 449.00 361.00 449.00 382.00 449.00 403.00
C 441.00 403.00 433.00 403.00 425.00 403.00
C 425.00 374.33 425.00 345.67 425.00 317.00
C 435.93 317.40 448.21 316.47 459.00 317.00 C 469.79 317.53 482.70 315.98 493.00 317.00 C 503.30 318.02 517.52 313.62 525.25 319.75 C 532.97 325.89 535.13 329.81 542.25 336.75 C 549.37 343.69 555.86 346.70 556.00 358.00 C 556.14 369.30 554.40 379.03 556.00 392.00 C 557.60 404.97 543.87 404.39 532.00 403.00
M 399.00 500.00 
C 409.01 508.90 410.75 521.17 402.25 532.25 C 393.74 543.32 383.46 545.61 369.00 544.00 C 354.54 542.39 337.68 545.21 323.00 544.00
C 323.00 536.00 323.00 528.00 323.00 520.00
C 341.33 520.00 359.67 520.00 378.00 520.00
C 380.41 509.36 368.19 513.58 361.00 513.00 C 353.81 512.42 344.39 513.43 337.00 513.00
C 337.00 505.00 337.00 497.00 337.00 489.00
C 350.67 489.00 364.33 489.00 378.00 489.00
C 380.16 476.02 364.38 481.95 355.00 481.00 C 345.62 480.05 332.70 481.71 323.00 481.00
C 323.00 473.00 323.00 465.00 323.00 457.00
C 337.56 455.57 353.58 458.91 368.00 457.00 C 382.42 455.09 392.57 458.16 401.25 468.75 C 409.93 479.34 410.34 491.86 399.00 500.00
M 463.00 513.00 
C 462.39 525.27 479.15 518.80 489.00 520.00 C 498.85 521.20 512.78 519.10 523.00 520.00
C 523.00 528.00 523.00 536.00 523.00 544.00
C 495.00 544.00 467.00 544.00 439.00 544.00
C 438.68 525.38 435.09 505.90 450.75 493.75 C 466.41 481.61 488.46 498.25 501.00 481.00
C 480.33 481.00 459.67 481.00 439.00 481.00
C 439.00 473.00 439.00 465.00 439.00 457.00
C 453.92 455.88 474.66 458.49 489.00 457.00 C 503.34 455.51 515.33 461.24 522.25 473.75 C 529.17 486.26 521.09 502.57 509.75 509.75 C 498.42 516.93 476.73 511.13 463.00 513.00
M 305.00 595.00 
C 321.28 598.06 325.06 620.55 344.02 620.98 C 362.99 621.40 388.20 622.57 408.00 622.00 C 427.80 621.43 453.90 622.46 473.00 622.00 C 492.10 621.54 511.64 624.17 523.75 607.75 C 535.87 591.33 552.03 594.03 563.25 607.75 C 574.47 621.47 584.69 627.86 595.75 640.25 C 606.81 652.64 617.20 660.66 628.25 672.75 C 639.29 684.85 649.58 692.61 660.75 705.25 C 671.93 717.89 655.13 736.62 643.75 744.75 C 632.38 752.88 622.59 774.36 607.00 773.00 C 591.41 771.64 583.38 753.16 571.25 743.75 C 559.11 734.35 550.69 720.88 538.25 710.75 C 525.81 700.62 518.91 685.65 500.98 683.02 C 483.04 680.40 456.39 682.92 437.00 682.00 C 417.61 681.08 391.04 683.29 372.00 682.00 C 352.96 680.71 333.51 682.64 321.25 696.25 C 308.98 709.86 300.19 715.49 288.75 728.75 C 277.31 742.01 267.27 746.72 256.25 761.25 C 245.23 775.78 226.89 775.07 216.25 759.75 C 205.61 744.44 194.84 742.07 183.75 727.25 C 172.66 712.42 190.80 697.74 201.75 687.75 C 212.71 677.77 223.18 665.10 234.25 655.25 C 245.32 645.39 255.40 631.82 266.75 622.75 C 278.10 613.69 288.73 591.94 305.00 595.00 Z"/>
</g>
<g fill="#F8F9FB" fill-opacity="0.98" stroke="None">
<path d="
M 245.00 76.00 
C 229.83 72.47 217.33 89.48 208.25 99.25 C 199.17 109.02 181.43 119.79 183.00 134.00 C 184.57 148.20 200.67 156.87 209.75 167.25 C 218.83 177.63 229.84 187.49 239.75 197.25 C 249.66 207.00 259.07 218.28 269.75 227.25 C 280.43 236.22 288.44 253.48 304.00 253.00 C 319.56 252.52 324.96 234.09 340.77 229.77 C 356.59 225.45 378.98 225.82 397.00 226.00 C 415.02 226.18 439.25 226.49 457.00 226.00 C 474.75 225.51 497.46 225.62 511.92 231.08 C 526.39 236.53 534.79 256.58 549.98 252.98 C 565.16 249.37 570.42 233.31 581.75 224.75 C 593.08 216.19 601.20 204.60 611.25 195.25 C 621.29 185.90 632.35 174.98 641.25 165.25 C 650.15 155.52 667.99 144.62 666.99 131.01 C 665.99 117.39 647.61 108.08 639.75 98.25 C 631.89 88.41 616.17 70.28 603.08 77.08 C 589.98 83.87 583.70 97.01 572.25 106.25 C 560.80 115.48 553.86 126.62 542.25 136.25 C 530.64 145.88 525.08 158.22 509.68 163.68 C 494.28 169.14 470.78 166.63 453.00 167.00 C 435.22 167.37 410.73 166.79 393.00 167.00 C 375.27 167.21 352.47 168.64 337.70 162.31 C 322.92 155.97 317.24 143.41 305.75 134.25 C 294.26 125.09 286.94 112.22 275.75 104.25 C 264.56 96.28 257.92 79.01 245.00 76.00 Z"/>
</g>
<g fill="#F8F9FB" fill-opacity="0.98" stroke="None">
<path d="
M 131.00 181.00 
C 114.22 180.07 106.42 203.09 93.25 211.25 C 80.07 219.40 65.68 239.96 79.75 252.25 C 93.82 264.53 100.45 274.07 113.75 286.25 C 127.05 298.43 133.91 307.61 147.75 320.25 C 161.59 332.89 166.47 351.18 165.00 371.00 C 163.53 390.82 166.11 418.99 165.00 439.00 C 163.89 459.01 167.40 486.90 162.78 504.78 C 158.15 522.65 142.84 529.62 132.75 542.75 C 122.67 555.88 108.66 564.61 98.75 576.75 C 88.84 588.90 66.76 600.05 75.08 616.92 C 83.40 633.80 98.13 635.51 108.25 651.75 C 118.36 668.00 139.04 668.82 149.75 653.75 C 160.47 638.69 173.10 633.42 183.75 619.75 C 194.40 606.08 207.62 599.58 217.75 585.75 C 227.88 571.92 244.18 567.49 250.22 550.22 C 256.26 532.95 230.46 524.38 226.93 507.07 C 223.39 489.77 223.55 461.87 224.00 442.00 C 224.45 422.13 223.46 393.69 224.00 374.00 C 224.54 354.31 221.70 333.86 239.25 321.25 C 256.80 308.64 249.96 290.98 235.75 280.25 C 221.54 269.51 214.60 256.47 201.75 246.25 C 188.90 236.03 180.25 221.22 167.75 212.25 C 155.25 203.28 146.40 181.86 131.00 181.00 Z"/>
</g>
<g fill="#F8F9FB" fill-opacity="0.98" stroke="None">
<path d="
M 723.00 183.00 
C 709.46 179.65 700.51 191.92 692.25 200.25 C 683.99 208.58 676.80 215.49 668.75 223.75 C 660.71 232.01 653.21 238.77 645.25 247.25 C 637.28 255.72 629.18 262.22 621.25 271.25 C 613.32 280.28 605.21 284.32 598.31 295.31 C 591.40 306.29 602.11 316.72 610.75 325.25 C 619.39 333.79 623.52 346.44 623.00 360.00 C 622.48 373.56 623.44 393.58 623.00 408.00 C 622.56 422.42 623.66 440.63 623.00 455.00 C 622.34 469.37 624.62 488.07 622.33 501.33 C 620.03 514.58 614.55 521.61 604.25 530.25 C 593.95 538.89 594.57 553.54 604.25 561.75 C 613.93 569.97 619.13 577.12 627.75 585.25 C 636.37 593.38 643.16 600.51 651.25 608.75 C 659.33 617.00 667.57 624.19 675.25 632.75 C 682.93 641.32 691.66 646.90 698.75 656.25 C 705.84 665.60 721.38 671.44 729.75 661.75 C 738.13 652.07 745.58 647.36 753.25 638.25 C 760.92 629.13 773.23 623.22 774.00 611.00 C 774.76 598.78 762.20 591.63 754.75 583.25 C 747.31 574.86 738.99 568.18 731.25 559.75 C 723.51 551.32 715.73 545.13 707.75 536.25 C 699.78 527.37 690.53 522.15 685.98 510.02 C 681.43 497.90 683.31 480.27 683.00 466.00 C 682.69 451.73 683.43 433.64 683.00 419.00 C 682.57 404.36 683.82 385.21 683.00 371.00 C 682.18 356.79 683.15 342.01 690.70 331.70 C 698.25 321.38 704.64 315.54 713.25 307.25 C 721.86 298.95 728.27 291.32 736.75 283.75 C 745.24 276.18 752.01 266.41 760.75 259.75 C 769.49 253.10 779.54 237.90 770.75 229.25 C 761.96 220.59 756.03 212.43 747.25 205.75 C 738.47 199.08 733.12 185.51 723.00 183.00 Z"/>
</g>
<g fill="#F8F9FB" fill-opacity="0.96" stroke="None">
<path d="
M 394.00 317.00 
C 379.21 315.91 360.38 318.46 346.00 317.00 C 331.62 315.54 318.81 317.29 311.25 329.25 C 303.68 341.21 290.91 341.57 290.00 356.00 C 289.09 370.43 290.68 388.26 290.00 403.00
C 298.00 403.00 306.00 403.00 314.00 403.00
C 314.00 396.67 314.00 390.33 314.00 384.00
C 332.67 384.00 351.33 384.00 370.00 384.00
C 370.00 390.33 370.00 396.67 370.00 403.00
C 383.27 404.93 396.31 404.46 394.00 390.00 C 391.69 375.54 395.24 366.37 394.00 353.00 C 392.76 339.63 394.93 330.03 394.00 317.00
M 370.00 360.00 
C 351.67 360.00 333.33 360.00 315.00 360.00
C 320.14 352.34 322.28 351.00 329.75 343.75 C 337.22 336.50 346.74 342.52 358.00 340.00 C 369.26 337.48 373.10 348.49 370.00 360.00 Z"/>
</g>
<g fill="#F8F9FB" fill-opacity="0.95" stroke="None">
<path d="
M 532.00 403.00 
C 543.87 404.39 557.60 404.97 556.00 392.00 C 554.40 379.03 556.14 369.30 556.00 358.00 C 555.86 346.70 549.37 343.69 542.25 336.75 C 535.13 329.81 532.97 325.89 525.25 319.75 C 517.52 313.62 503.30 318.02 493.00 317.00 C 482.70 315.98 469.79 317.53 459.00 317.00 C 448.21 316.47 435.93 317.40 425.00 317.00
C 425.00 345.67 425.00 374.33 425.00 403.00
C 433.00 403.00 441.00 403.00 449.00 403.00
C 449.00 382.00 449.00 361.00 449.00 340.00
C 455.41 343.16 474.56 334.46 477.00 343.00 C 479.44 351.54 475.73 363.76 477.00 373.00 C 478.27 382.24 476.05 393.57 477.00 403.00
C 483.85 400.97 500.61 407.83 501.00 398.00 C 501.39 388.17 500.80 378.75 501.00 369.00 C 501.20 359.25 500.85 349.73 501.00 340.00
C 513.02 339.00 522.57 348.12 529.75 358.25 C 536.94 368.38 529.05 390.71 532.00 403.00 Z"/>
</g>
<g fill="#000000" fill-opacity="0.00" stroke="None">
<path d="
M 370.00 360.00 
C 373.10 348.49 369.26 337.48 358.00 340.00 C 346.74 342.52 337.22 336.50 329.75 343.75 C 322.28 351.00 320.14 352.34 315.00 360.00
C 333.33 360.00 351.67 360.00 370.00 360.00 Z"/>
</g>
<g fill="#F8F9FB" fill-opacity="0.95" stroke="None">
<path d="
M 399.00 500.00 
C 410.34 491.86 409.93 479.34 401.25 468.75 C 392.57 458.16 382.42 455.09 368.00 457.00 C 353.58 458.91 337.56 455.57 323.00 457.00
C 323.00 465.00 323.00 473.00 323.00 481.00
C 332.70 481.71 345.62 480.05 355.00 481.00 C 364.38 481.95 380.16 476.02 378.00 489.00
C 364.33 489.00 350.67 489.00 337.00 489.00
C 337.00 497.00 337.00 505.00 337.00 513.00
C 344.39 513.43 353.81 512.42 361.00 513.00 C 368.19 513.58 380.41 509.36 378.00 520.00
C 359.67 520.00 341.33 520.00 323.00 520.00
C 323.00 528.00 323.00 536.00 323.00 544.00
C 337.68 545.21 354.54 542.39 369.00 544.00 C 383.46 545.61 393.74 543.32 402.25 532.25 C 410.75 521.17 409.01 508.90 399.00 500.00 Z"/>
</g>
<g fill="#F8F9FB" fill-opacity="0.95" stroke="None">
<path d="
M 463.00 513.00 
C 476.73 511.13 498.42 516.93 509.75 509.75 C 521.09 502.57 529.17 486.26 522.25 473.75 C 515.33 461.24 503.34 455.51 489.00 457.00 C 474.66 458.49 453.92 455.88 439.00 457.00
C 439.00 465.00 439.00 473.00 439.00 481.00
C 459.67 481.00 480.33 481.00 501.00 481.00
C 488.46 498.25 466.41 481.61 450.75 493.75 C 435.09 505.90 438.68 525.38 439.00 544.00
C 467.00 544.00 495.00 544.00 523.00 544.00
C 523.00 536.00 523.00 528.00 523.00 520.00
C 512.78 519.10 498.85 521.20 489.00 520.00 C 479.15 518.80 462.39 525.27 463.00 513.00 Z"/>
</g>
<g fill="#F8F9FB" fill-opacity="0.98" stroke="None">
<path d="
M 305.00 595.00 
C 288.73 591.94 278.10 613.69 266.75 622.75 C 255.40 631.82 245.32 645.39 234.25 655.25 C 223.18 665.10 212.71 677.77 201.75 687.75 C 190.80 697.74 172.66 712.42 183.75 727.25 C 194.84 742.07 205.61 744.44 216.25 759.75 C 226.89 775.07 245.23 775.78 256.25 761.25 C 267.27 746.72 277.31 742.01 288.75 728.75 C 300.19 715.49 308.98 709.86 321.25 696.25 C 333.51 682.64 352.96 680.71 372.00 682.00 C 391.04 683.29 417.61 681.08 437.00 682.00 C 456.39 682.92 483.04 680.40 500.98 683.02 C 518.91 685.65 525.81 700.62 538.25 710.75 C 550.69 720.88 559.11 734.35 571.25 743.75 C 583.38 753.16 591.41 771.64 607.00 773.00 C 622.59 774.36 632.38 752.88 643.75 744.75 C 655.13 736.62 671.93 717.89 660.75 705.25 C 649.58 692.61 639.29 684.85 628.25 672.75 C 617.20 660.66 606.81 652.64 595.75 640.25 C 584.69 627.86 574.47 621.47 563.25 607.75 C 552.03 594.03 535.87 591.33 523.75 607.75 C 511.64 624.17 492.10 621.54 473.00 622.00 C 453.90 622.46 427.80 621.43 408.00 622.00 C 388.20 622.57 362.99 621.40 344.02 620.98 C 325.06 620.55 321.28 598.06 305.00 595.00 Z"/>
</g>
</svg>