<?xml version="1.0" encoding="UTF-8" standalone="no"?>
<svg
   width="512"
   height="512"
   viewBox="0 0 39.476429 39.476429"
   version="1.1"
   id="svg109"
   xmlns:xlink="http://www.w3.org/1999/xlink"
   xmlns="http://www.w3.org/2000/svg"
   xmlns:svg="http://www.w3.org/2000/svg">
  <defs
     id="defs113">
    <linearGradient
       id="linearGradient28292">
      <stop
         style="stop-color:#ffffff;stop-opacity:1;"
         offset="0"
         id="stop28288" />
      <stop
         style="stop-color:#ffffff;stop-opacity:0;"
         offset="1"
         id="stop28290" />
    </linearGradient>
    <linearGradient
       id="linearGradient1749">
      <stop
         style="stop-color:#f5be39;stop-opacity:1;"
         offset="0"
         id="stop1745" />
      <stop
         style="stop-color:#ffd699;stop-opacity:1;"
         offset="0.44286996"
         id="stop5511" />
      <stop
         style="stop-color:#9a5f00;stop-opacity:1;"
         offset="0.58172649"
         id="stop5507" />
      <stop
         style="stop-color:#cfa344;stop-opacity:1;"
         offset="0.85889333"
         id="stop5509" />
      <stop
         style="stop-color:#ffd587;stop-opacity:1;"
         offset="1"
         id="stop1747" />
    </linearGradient>
    <linearGradient
       xlink:href="#linearGradient1749"
       id="linearGradient1751"
       x1="-45.682671"
       y1="18.414253"
       x2="-45.682671"
       y2="-21.00696"
       gradientUnits="userSpaceOnUse" />
    <linearGradient
       xlink:href="#linearGradient1749"
       id="linearGradient18718"
       x1="-6.2713218"
       y1="-20.88386"
       x2="-6.2713218"
       y2="18.420364"
       gradientUnits="userSpaceOnUse" />
    <linearGradient
       xlink:href="#linearGradient28292"
       id="linearGradient28294"
       x1="-24.591709"
       y1="0.21153279"
       x2="-24.591709"
       y2="-18.75918"
       gradientUnits="userSpaceOnUse" />
    <linearGradient
       xlink:href="#linearGradient1749"
       id="linearGradient37018"
       gradientUnits="userSpaceOnUse"
       x1="-45.682671"
       y1="18.414253"
       x2="-45.682671"
       y2="-21.00696" />
    <linearGradient
       xlink:href="#linearGradient1749"
       id="linearGradient37020"
       gradientUnits="userSpaceOnUse"
       x1="-6.2713218"
       y1="-20.88386"
       x2="-6.2713218"
       y2="18.420364" />
    <linearGradient
       xlink:href="#linearGradient1749"
       id="linearGradient37022"
       gradientUnits="userSpaceOnUse"
       x1="-45.682671"
       y1="18.414253"
       x2="-45.682671"
       y2="-21.00696" />
    <linearGradient
       xlink:href="#linearGradient1749"
       id="linearGradient37024"
       gradientUnits="userSpaceOnUse"
       x1="-45.682671"
       y1="18.414253"
       x2="-45.682671"
       y2="-21.00696" />
  </defs>
  <g
     fill-rule="evenodd"
     clip-rule="evenodd"
     id="g107"
     transform="matrix(0.99032725,0,0,0.99032725,45.431715,21.024607)">
    <circle
       style="opacity:1;fill:#000000;fill-opacity:1;stroke-width:0.305415"
       id="path9973"
       cx="-25.944456"
       cy="-1.2989572"
       r="19.738214" />
    <path
       d="m -21.940063,-5.9119705 c 0.753568,-0.8721626 1.606864,-1.6598716 2.511595,-2.3757053 0.910795,-0.7205505 1.873251,-1.3685518 2.986646,-1.8325972 1.177857,-0.490774 2.524622,-0.775805 3.829832,-0.839819 3.8350002,5.2922731 4.1768574,12.3520059 0.870366,17.9899535 0.09748,-2.605032 -0.06491,-4.8394573 -0.51009,-6.72214252 -0.382512,-1.61921708 -0.97436,-2.97833528 -1.921093,-4.31184788 l 2.645686,-2.3489766 a 15.141443,15.141443 0 0 0 -1.522184,-3.138258 c -0.764574,0.2003526 -1.469178,0.4638207 -2.131554,1.0394974 -0.812416,0.7057262 -1.562615,1.8804392 -1.881562,3.0239313 v 9.542128 c 0,1.0543217 0.192042,2.0895508 0.665521,3.0910891 0.512786,1.0857671 1.355524,2.1317783 2.322922,2.9057857 -5.433104,5.652324 -14.098802,6.689575 -20.712458,2.479026 -6.613881,-4.2103234 -9.341326,-12.50047182 -6.51932,-19.8153621 -0.07749,1.9550098 0.210011,3.9646 0.949653,5.7922557 0.740317,1.82855408 1.933672,3.4751737 3.350964,4.8266551 l -2.183887,2.9217327 a 15.277108,15.277108 0 0 0 23.293007,3.8931736 l -6.743032,-2.8426702 -0.03504,-1.6459451 -3.957637,3.7474009 -5.708925,-1.9262596 h -2.311916 c 0.780746,-0.6693393 1.494109,-1.7618442 1.523084,-2.6492803 0.02628,-0.8027579 -0.507845,-1.4379564 -1.249958,-1.9424316 -0.821625,-0.5588309 -1.898408,-0.9577392 -3.074693,-1.261188 0.937973,-0.047617 1.905146,-0.087598 2.735307,-0.1655379 0.547151,-0.051436 1.03478,-0.1194928 1.198297,-0.3434295 0.135665,-0.18552825 0.04829,-0.47842034 -0.192267,-0.74548223 -0.410812,-0.45573471 -1.268375,-0.83757257 -2.01251,-1.171793 -0.72931,-0.32748207 -1.349235,-0.60936827 -2.146153,-1.10261297 1.631795,-0.075918 3.359274,-0.1282526 4.078926,-0.454387 0.323664,-0.1466707 0.443382,-0.3488202 0.532552,-0.6538412 0.16464,-0.5633232 0.224835,-1.4777125 -0.06693,-2.244982 -0.318722,-0.8377972 -1.057242,-1.4999489 -2.004649,-2.1508702 -1.227496,-0.8434124 -2.805609,-1.6679576 -4.682455,-2.5068778 4.576664,-7.5284953 14.268832,-10.1200513 21.992513,-5.8800783 -2.321574,-0.05548 -4.092179,-8.99e-4 -5.873115,0.375324 -1.80789,0.381838 -3.625663,1.094976 -5.359432,2.551126 l -2.321798,-2.695551 a 15.276883,15.276883 0 0 0 -6.531898,4.957379 l 9.273044,4.7673579 2.757993,-1.769257 -0.988736,2.9662063 v 7.3896856 c 0.209112,1.1852696 0.956392,2.0455279 1.809238,2.0677643 0.969868,0.024932 2.076299,-1.0332083 2.705433,-2.1021297 v -5.7017376 l -2.37548,-3.3258078 z m 13.9851477,4.6128259 c 0,-9.9351964 -8.0543067,-17.9895044 -17.9897277,-17.9895044 -9.935422,0 -17.989505,8.054083 -17.989505,17.9895044 0,9.9354204 8.054083,17.9895036 17.989505,17.9895036 9.935196,0 17.9897277,-8.0543078 17.9897277,-17.9895036 z M -43.051653,-11.140903 a 19.708898,19.708898 0 0 1 11.964327,-9.2124 19.708673,19.708673 0 0 1 14.984666,1.947149 19.709347,19.709347 0 0 1 9.2126231,11.9643273 A 19.708673,19.708673 0 0 1 -8.83741,8.5428378 19.709122,19.709122 0 0 1 -20.801512,17.755462 19.708673,19.708673 0 0 1 -35.786177,15.808089 19.709572,19.709572 0 0 1 -44.998802,3.8437621 19.708673,19.708673 0 0 1 -43.051653,-11.140903 Z"
       id="path12879"
       style="fill:url(#linearGradient37024);fill-opacity:1;stroke:url(#linearGradient18718);stroke-width:0.385512;stroke-dasharray:none" />
    <path
       d="m -21.940063,-5.9119705 c 0.753568,-0.8721626 1.606864,-1.6598716 2.511595,-2.3757053 0.910795,-0.7205505 1.873251,-1.3685518 2.986646,-1.8325972 1.177857,-0.490774 2.524622,-0.775805 3.829832,-0.839819 3.8350002,5.2922731 4.1768574,12.3520059 0.870366,17.9899535 0.09748,-2.605032 -0.06491,-4.8394573 -0.51009,-6.72214252 -0.382512,-1.61921708 -0.97436,-2.97833528 -1.921093,-4.31184788 l 2.645686,-2.3489766 a 15.141443,15.141443 0 0 0 -1.522184,-3.138258 c -0.764574,0.2003526 -1.469178,0.4638207 -2.131554,1.0394974 -0.812416,0.7057262 -1.562615,1.8804392 -1.881562,3.0239313 v 9.542128 c 0,1.0543217 0.192042,2.0895508 0.665521,3.0910891 0.512786,1.0857671 1.355524,2.1317783 2.322922,2.9057857 -5.433104,5.652324 -14.098802,6.689575 -20.712458,2.479026 -6.613881,-4.2103234 -9.341326,-12.50047182 -6.51932,-19.8153621 -0.07749,1.9550098 0.210011,3.9646 0.949653,5.7922557 0.740317,1.82855408 1.933672,3.4751737 3.350964,4.8266551 l -2.183887,2.9217327 a 15.277108,15.277108 0 0 0 23.293007,3.8931736 l -6.743032,-2.8426702 -0.03504,-1.6459451 -3.957637,3.7474009 -5.708925,-1.9262596 h -2.311916 c 0.780746,-0.6693393 1.494109,-1.7618442 1.523084,-2.6492803 0.02628,-0.8027579 -0.507845,-1.4379564 -1.249958,-1.9424316 -0.821625,-0.5588309 -1.898408,-0.9577392 -3.074693,-1.261188 0.937973,-0.047617 1.905146,-0.087598 2.735307,-0.1655379 0.547151,-0.051436 1.03478,-0.1194928 1.198297,-0.3434295 0.135665,-0.18552825 0.04829,-0.47842034 -0.192267,-0.74548223 -0.410812,-0.45573471 -1.268375,-0.83757257 -2.01251,-1.171793 -0.72931,-0.32748207 -1.349235,-0.60936827 -2.146153,-1.10261297 1.631795,-0.075918 3.359274,-0.1282526 4.078926,-0.454387 0.323664,-0.1466707 0.443382,-0.3488202 0.532552,-0.6538412 0.16464,-0.5633232 0.224835,-1.4777125 -0.06693,-2.244982 -0.318722,-0.8377972 -1.057242,-1.4999489 -2.004649,-2.1508702 -1.227496,-0.8434124 -2.805609,-1.6679576 -4.682455,-2.5068778 4.576664,-7.5284953 14.268832,-10.1200513 21.992513,-5.8800783 -2.321574,-0.05548 -4.092179,-8.99e-4 -5.873115,0.375324 -1.80789,0.381838 -3.625663,1.094976 -5.359432,2.551126 l -2.321798,-2.695551 a 15.276883,15.276883 0 0 0 -6.531898,4.957379 l 9.273044,4.7673579 2.757993,-1.769257 -0.988736,2.9662063 v 7.3896856 c 0.209112,1.1852696 0.956392,2.0455279 1.809238,2.0677643 0.969868,0.024932 2.076299,-1.0332083 2.705433,-2.1021297 v -5.7017376 l -2.37548,-3.3258078 z m 13.9851477,4.6128259 c 0,-9.9351964 -8.0543067,-17.9895044 -17.9897277,-17.9895044 -9.935422,0 -17.989505,8.054083 -17.989505,17.9895044 0,9.9354204 8.054083,17.9895036 17.989505,17.9895036 9.935196,0 17.9897277,-8.0543078 17.9897277,-17.9895036 z M -43.051653,-11.140903 a 19.708898,19.708898 0 0 1 11.964327,-9.2124 19.708673,19.708673 0 0 1 14.984666,1.947149 19.709347,19.709347 0 0 1 9.2126231,11.9643273 A 19.708673,19.708673 0 0 1 -8.83741,8.5428378 19.709122,19.709122 0 0 1 -20.801512,17.755462 19.708673,19.708673 0 0 1 -35.786177,15.808089 19.709572,19.709572 0 0 1 -44.998802,3.8437621 19.708673,19.708673 0 0 1 -43.051653,-11.140903 Z"
       id="path105"
       style="fill:url(#linearGradient1751);fill-opacity:1;stroke-width:0.224611" />
  </g>
  <g
     fill-rule="evenodd"
     clip-rule="evenodd"
     id="g21630"
     transform="matrix(0.99032725,0,0,0.99032725,45.431715,21.024607)">
    <circle
       style="opacity:1;fill:#000000;fill-opacity:1;stroke-width:0.305415"
       id="circle21624"
       cx="-25.944456"
       cy="-1.2989572"
       r="19.738214" />
    <path
       d="m -21.940063,-5.9119705 c 0.753568,-0.8721626 1.606864,-1.6598716 2.511595,-2.3757053 0.910795,-0.7205505 1.873251,-1.3685518 2.986646,-1.8325972 1.177857,-0.490774 2.524622,-0.775805 3.829832,-0.839819 3.8350002,5.2922731 4.1768574,12.3520059 0.870366,17.9899535 0.09748,-2.605032 -0.06491,-4.8394573 -0.51009,-6.72214252 -0.382512,-1.61921708 -0.97436,-2.97833528 -1.921093,-4.31184788 l 2.645686,-2.3489766 a 15.141443,15.141443 0 0 0 -1.522184,-3.138258 c -0.764574,0.2003526 -1.469178,0.4638207 -2.131554,1.0394974 -0.812416,0.7057262 -1.562615,1.8804392 -1.881562,3.0239313 v 9.542128 c 0,1.0543217 0.192042,2.0895508 0.665521,3.0910891 0.512786,1.0857671 1.355524,2.1317783 2.322922,2.9057857 -5.433104,5.652324 -14.098802,6.689575 -20.712458,2.479026 -6.613881,-4.2103234 -9.341326,-12.50047182 -6.51932,-19.8153621 -0.07749,1.9550098 0.210011,3.9646 0.949653,5.7922557 0.740317,1.82855408 1.933672,3.4751737 3.350964,4.8266551 l -2.183887,2.9217327 a 15.277108,15.277108 0 0 0 23.293007,3.8931736 l -6.743032,-2.8426702 -0.03504,-1.6459451 -3.957637,3.7474009 -5.708925,-1.9262596 h -2.311916 c 0.780746,-0.6693393 1.494109,-1.7618442 1.523084,-2.6492803 0.02628,-0.8027579 -0.507845,-1.4379564 -1.249958,-1.9424316 -0.821625,-0.5588309 -1.898408,-0.9577392 -3.074693,-1.261188 0.937973,-0.047617 1.905146,-0.087598 2.735307,-0.1655379 0.547151,-0.051436 1.03478,-0.1194928 1.198297,-0.3434295 0.135665,-0.18552825 0.04829,-0.47842034 -0.192267,-0.74548223 -0.410812,-0.45573471 -1.268375,-0.83757257 -2.01251,-1.171793 -0.72931,-0.32748207 -1.349235,-0.60936827 -2.146153,-1.10261297 1.631795,-0.075918 3.359274,-0.1282526 4.078926,-0.454387 0.323664,-0.1466707 0.443382,-0.3488202 0.532552,-0.6538412 0.16464,-0.5633232 0.224835,-1.4777125 -0.06693,-2.244982 -0.318722,-0.8377972 -1.057242,-1.4999489 -2.004649,-2.1508702 -1.227496,-0.8434124 -2.805609,-1.6679576 -4.682455,-2.5068778 4.576664,-7.5284953 14.268832,-10.1200513 21.992513,-5.8800783 -2.321574,-0.05548 -4.092179,-8.99e-4 -5.873115,0.375324 -1.80789,0.381838 -3.625663,1.094976 -5.359432,2.551126 l -2.321798,-2.695551 a 15.276883,15.276883 0 0 0 -6.531898,4.957379 l 9.273044,4.7673579 2.757993,-1.769257 -0.988736,2.9662063 v 7.3896856 c 0.209112,1.1852696 0.956392,2.0455279 1.809238,2.0677643 0.969868,0.024932 2.076299,-1.0332083 2.705433,-2.1021297 v -5.7017376 l -2.37548,-3.3258078 z m 13.9851477,4.6128259 c 0,-9.9351964 -8.0543067,-17.9895044 -17.9897277,-17.9895044 -9.935422,0 -17.989505,8.054083 -17.989505,17.9895044 0,9.9354204 8.054083,17.9895036 17.989505,17.9895036 9.935196,0 17.9897277,-8.0543078 17.9897277,-17.9895036 z M -43.051653,-11.140903 a 19.708898,19.708898 0 0 1 11.964327,-9.2124 19.708673,19.708673 0 0 1 14.984666,1.947149 19.709347,19.709347 0 0 1 9.2126231,11.9643273 A 19.708673,19.708673 0 0 1 -8.83741,8.5428378 19.709122,19.709122 0 0 1 -20.801512,17.755462 19.708673,19.708673 0 0 1 -35.786177,15.808089 19.709572,19.709572 0 0 1 -44.998802,3.8437621 19.708673,19.708673 0 0 1 -43.051653,-11.140903 Z"
       id="path21626"
       style="fill:url(#linearGradient37018);fill-opacity:1;stroke:url(#linearGradient37020);stroke-width:0.385512;stroke-dasharray:none" />
    <path
       d="m -21.940063,-5.9119705 c 0.753568,-0.8721626 1.606864,-1.6598716 2.511595,-2.3757053 0.910795,-0.7205505 1.873251,-1.3685518 2.986646,-1.8325972 1.177857,-0.490774 2.524622,-0.775805 3.829832,-0.839819 3.8350002,5.2922731 4.1768574,12.3520059 0.870366,17.9899535 0.09748,-2.605032 -0.06491,-4.8394573 -0.51009,-6.72214252 -0.382512,-1.61921708 -0.97436,-2.97833528 -1.921093,-4.31184788 l 2.645686,-2.3489766 a 15.141443,15.141443 0 0 0 -1.522184,-3.138258 c -0.764574,0.2003526 -1.469178,0.4638207 -2.131554,1.0394974 -0.812416,0.7057262 -1.562615,1.8804392 -1.881562,3.0239313 v 9.542128 c 0,1.0543217 0.192042,2.0895508 0.665521,3.0910891 0.512786,1.0857671 1.355524,2.1317783 2.322922,2.9057857 -5.433104,5.652324 -14.098802,6.689575 -20.712458,2.479026 -6.613881,-4.2103234 -9.341326,-12.50047182 -6.51932,-19.8153621 -0.07749,1.9550098 0.210011,3.9646 0.949653,5.7922557 0.740317,1.82855408 1.933672,3.4751737 3.350964,4.8266551 l -2.183887,2.9217327 a 15.277108,15.277108 0 0 0 23.293007,3.8931736 l -6.743032,-2.8426702 -0.03504,-1.6459451 -3.957637,3.7474009 -5.708925,-1.9262596 h -2.311916 c 0.780746,-0.6693393 1.494109,-1.7618442 1.523084,-2.6492803 0.02628,-0.8027579 -0.507845,-1.4379564 -1.249958,-1.9424316 -0.821625,-0.5588309 -1.898408,-0.9577392 -3.074693,-1.261188 0.937973,-0.047617 1.905146,-0.087598 2.735307,-0.1655379 0.547151,-0.051436 1.03478,-0.1194928 1.198297,-0.3434295 0.135665,-0.18552825 0.04829,-0.47842034 -0.192267,-0.74548223 -0.410812,-0.45573471 -1.268375,-0.83757257 -2.01251,-1.171793 -0.72931,-0.32748207 -1.349235,-0.60936827 -2.146153,-1.10261297 1.631795,-0.075918 3.359274,-0.1282526 4.078926,-0.454387 0.323664,-0.1466707 0.443382,-0.3488202 0.532552,-0.6538412 0.16464,-0.5633232 0.224835,-1.4777125 -0.06693,-2.244982 -0.318722,-0.8377972 -1.057242,-1.4999489 -2.004649,-2.1508702 -1.227496,-0.8434124 -2.805609,-1.6679576 -4.682455,-2.5068778 4.576664,-7.5284953 14.268832,-10.1200513 21.992513,-5.8800783 -2.321574,-0.05548 -4.092179,-8.99e-4 -5.873115,0.375324 -1.80789,0.381838 -3.625663,1.094976 -5.359432,2.551126 l -2.321798,-2.695551 a 15.276883,15.276883 0 0 0 -6.531898,4.957379 l 9.273044,4.7673579 2.757993,-1.769257 -0.988736,2.9662063 v 7.3896856 c 0.209112,1.1852696 0.956392,2.0455279 1.809238,2.0677643 0.969868,0.024932 2.076299,-1.0332083 2.705433,-2.1021297 v -5.7017376 l -2.37548,-3.3258078 z m 13.9851477,4.6128259 c 0,-9.9351964 -8.0543067,-17.9895044 -17.9897277,-17.9895044 -9.935422,0 -17.989505,8.054083 -17.989505,17.9895044 0,9.9354204 8.054083,17.9895036 17.989505,17.9895036 9.935196,0 17.9897277,-8.0543078 17.9897277,-17.9895036 z M -43.051653,-11.140903 a 19.708898,19.708898 0 0 1 11.964327,-9.2124 19.708673,19.708673 0 0 1 14.984666,1.947149 19.709347,19.709347 0 0 1 9.2126231,11.9643273 A 19.708673,19.708673 0 0 1 -8.83741,8.5428378 19.709122,19.709122 0 0 1 -20.801512,17.755462 19.708673,19.708673 0 0 1 -35.786177,15.808089 19.709572,19.709572 0 0 1 -44.998802,3.8437621 19.708673,19.708673 0 0 1 -43.051653,-11.140903 Z"
       id="path21628"
       style="fill:url(#linearGradient37022);fill-opacity:1;stroke-width:0.224611" />
    <path
       id="path23092"
       style="fill:url(#linearGradient28294);fill-opacity:1;stroke-width:0.224611"
       d="m -25.805762,-20.69277 c -0.473953,-0.0033 -0.948507,0.01071 -1.42278,0.04232 -1.26469,0.08428 -2.527642,0.29308 -3.769434,0.629017 -4.964981,1.336993 -9.192635,4.59465 -11.75405,9.052755 -0.818765,1.4212894 -1.446154,2.9278069 -1.878016,4.4815773 a 32.997555,12.991727 0 0 0 1.016337,0.282508 c 2.144166,-7.7443653 9.240277,-13.4281663 17.668346,-13.4281663 8.575261,-2e-6 15.773207,5.884158 17.7781269,13.8358151 a 32.997555,12.991727 0 0 0 1.023715,-0.2510346 c -0.025651,-0.1013013 -0.051879,-0.2025527 -0.079211,-0.3035907 -1.3370968,-4.9650198 -4.5945139,-9.1944868 -9.0526049,-11.7558568 -2.926257,-1.685736 -6.212755,-2.562011 -9.530429,-2.58534 z m -0.392439,3.281068 c -0.315168,10e-4 -0.629998,0.01309 -0.944354,0.03674 -4.901415,0.368776 -9.523879,3.000923 -12.347678,7.4140287 1.69084,0.7738331 3.203378,1.5417462 4.353575,2.3320464 0.965845,0.6635889 1.777805,1.379284 2.132815,2.3124697 0.121158,0.3186123 0.186893,0.6600124 0.212333,0.9949523 a 32.997555,12.991727 0 0 0 5.381356,0.3290405 v -0.6443773 l 0.699192,-2.0917038 -2.10345,1.3495932 -9.8164,-5.0449367 0.24998,-0.328137 c 1.722821,-2.266828 4.030876,-4.01882 6.67764,-5.068278 l 0.228597,-0.0899 2.290935,2.658226 c 1.700941,-1.345359 3.465567,-2.071066 5.218869,-2.441375 1.321534,-0.279144 2.809888,-0.261758 4.322252,-0.277388 -2.130497,-0.912593 -4.349481,-1.448123 -6.555662,-1.441002 z m 13.405277,6.837417 c -1.204493,0.08068 -2.438519,0.322655 -3.515689,0.7714759 -1.073715,0.4475077 -2.008833,1.0752856 -2.906249,1.7852518 -0.891251,0.7051681 -1.728121,1.4773958 -2.464867,2.3300888 l -0.117159,0.138694 -2.400415,-0.2734726 1.308783,1.8328385 a 32.997555,12.991727 0 0 0 5.482252,-0.3287394 v -1.156536 l 0.01175,-0.044876 c 0.334785,-1.2002751 1.126171,-2.4441515 1.98629,-3.1913165 0.720737,-0.6263985 1.48247,-0.9085104 2.271509,-1.1152742 l 0.244108,-0.062495 0.134778,0.2109775 c 0.640923,1.0064672 1.161188,2.0847697 1.554698,3.2108933 l 0.0762,0.2166999 -1.493408,1.3273058 a 32.997555,12.991727 0 0 0 2.231001,-0.3965051 c -0.460072,-1.8497566 -1.259524,-3.6315218 -2.403577,-5.2550107 z" />
  </g>
</svg>
