<svg xmlns="http://www.w3.org/2000/svg" viewBox="-1152.0 -997.6612651596732 2304.0 1995.3225303193465"><polygon fill="#4d6fb7" points="-624.0 249.4153162899184 -496.0 27.712812921102 63.99999999999994 997.6612651596733 -192.00000000000006 997.6612651596733 -320.00000000000017 775.9587617908571 -448.00000000000034 997.6612651596732 -576.0000000000003 997.6612651596732 -640.0000000000003 886.8100134752651 -448.0000000000001 554.2562584220408"></polygon><polygon fill="#77b6e1" points="-528.0000000000001 -415.6921938165305 -272.0 -415.69219381653056 -832.0 554.2562584220408 -960.0 332.55375505322456 -832.0000000000001 110.85125168440817 -1088.0 110.85125168440794 -1152.0 -1.7053025658242404e-13 -1088.0 -110.85125168440834 -704.0000000000001 -110.85125168440811"></polygon><polygon fill="#4d6fb7" points="95.99999999999983 -665.1075101064489 223.99999999999991 -443.4050067376326 -896.0000000000001 -443.40500673763245 -768.0000000000001 -665.1075101064487 -512.0000000000001 -665.1075101064489 -640.0 -886.8100134752652 -576.0 -997.6612651596733 -448.0 -997.6612651596733 -256.0000000000001 -665.1075101064489"></polygon><polygon fill="#77b6e1" points="624.0 -249.41531628991848 496.0 -27.71281292110206 -64.00000000000007 -997.6612651596733 191.99999999999994 -997.6612651596733 320.00000000000006 -775.9587617908571 448.0000000000002 -997.6612651596732 576.0000000000002 -997.6612651596733 640.0000000000002 -886.8100134752652 448.00000000000006 -554.2562584220408"></polygon><polygon fill="#4d6fb7" points="528.0000000000002 415.6921938165302 272.00000000000017 415.69219381653045 831.9999999999998 -554.2562584220411 959.9999999999999 -332.5537550532249 832.0000000000001 -110.85125168440845 1088.0 -110.8512516844084 1152.0 -2.8421709430404007e-13 1088.0 110.85125168440794 704.0000000000001 110.85125168440788"></polygon><polygon fill="#77b6e1" points="-96.0 665.1075101064489 -224.00000000000009 443.40500673763256 896.0 443.4050067376328 768.0 665.107510106449 511.9999999999999 665.1075101064491 639.9999999999997 886.8100134752656 575.9999999999997 997.6612651596736 447.99999999999966 997.6612651596737 255.9999999999999 665.107510106449"></polygon></svg>