<svg width="17" height="16" viewBox="0 0 17 16" fill="none" xmlns="http://www.w3.org/2000/svg">
    <g id="teams-icon-color">
<path fill-rule="evenodd" clip-rule="evenodd" d="M13.7745 8.08432C13.7745 11.154 11.2865 13.6422 8.2172 13.6422C5.14789 13.6422 2.65991 11.154 2.65991 8.08432C2.65991 5.01468 5.14789 2.52643 8.2172 2.52643C11.2865 2.52643 13.7745 5.01468 13.7745 8.08432" fill="white"/>
<path fill-rule="evenodd" clip-rule="evenodd" d="M12.9314 3.34064C12.3886 2.79242 11.7726 2.36076 11.115 2.04362C12.2994 4.48775 11.8772 7.51243 9.84509 9.54055C7.81314 11.5683 4.78307 11.9897 2.33432 10.8086C2.64098 11.4414 3.05357 12.036 3.57595 12.5639L3.63271 12.6208C6.20034 15.1833 10.3636 15.1833 12.9314 12.6208C15.499 10.0581 15.499 5.90333 12.9314 3.34064" fill="#6EBE4A"/>
<path fill-rule="evenodd" clip-rule="evenodd" d="M3.66578 4.83126C3.29193 4.83126 2.91824 4.68895 2.63314 4.40432C2.06276 3.83522 2.06276 2.91244 2.63314 2.34335C4.14725 0.832275 6.16017 0.000106812 8.30141 0.000106812C9.10806 0.000106812 9.76163 0.65257 9.76163 1.45762C9.76163 2.26251 9.10806 2.91514 8.30141 2.91514C6.94038 2.91514 5.66085 3.44398 4.69843 4.40432C4.41332 4.68895 4.03964 4.83126 3.66578 4.83126" fill="#D541D8"/>
<path fill-rule="evenodd" clip-rule="evenodd" d="M8.55476 0.0234985C9.24033 0.143414 9.7617 0.73912 9.7617 1.4576C9.7617 2.20118 9.20345 2.81356 8.48251 2.90266C11.2177 2.99849 13.4137 5.24741 13.4137 8.00009C13.4137 7.20447 14.06 6.55958 14.8571 6.55958C15.6543 6.55958 16.3006 7.20447 16.3006 8.00009C16.3006 3.68312 12.8485 0.157899 8.55476 0.0234985" fill="#FBAB18"/>
<path fill-rule="evenodd" clip-rule="evenodd" d="M14.8572 6.55949C14.0601 6.55949 13.4138 7.20438 13.4138 8C13.4138 10.7527 11.2178 13.0016 8.48245 13.0974C9.20339 13.1867 9.76164 13.7991 9.76164 14.5427C9.76164 15.2611 9.24027 15.8568 8.55487 15.9768C12.8485 15.8424 16.3006 12.3171 16.3006 8C16.3006 7.20438 15.6542 6.55949 14.8572 6.55949" fill="#005073"/>
<path fill-rule="evenodd" clip-rule="evenodd" d="M4.57156 4.51593C4.30683 4.72545 3.98653 4.83105 3.66572 4.83105C3.29187 4.83105 2.91818 4.68873 2.63308 4.4041C2.1304 3.90254 2.07145 3.12646 2.45491 2.55956C1.12082 3.98642 0.302216 5.89901 0.302216 7.99989C0.302216 10.1008 1.12099 12.0135 2.45524 13.4406C2.07145 12.8737 2.13023 12.0972 2.63308 11.5955C3.16321 11.0667 3.99849 11.0301 4.57139 11.4837C3.71507 10.571 3.18914 9.34591 3.18914 7.99989C3.18914 6.6537 3.71507 5.42861 4.57156 4.51593" fill="#FF3D67"/>
<path fill-rule="evenodd" clip-rule="evenodd" d="M8.3014 15.9998C6.16016 15.9998 4.14707 15.1677 2.63313 13.6566C2.06292 13.0873 2.06292 12.1646 2.63313 11.5955C3.20368 11.0262 4.12855 11.0265 4.69843 11.5955C5.66085 12.556 6.94037 13.0848 8.3014 13.0848C9.10805 13.0848 9.76162 13.7374 9.76162 14.5425C9.76162 15.3472 9.10805 15.9998 8.3014 15.9998" fill="#00BCEB"/>
</g>
</svg>
